<?xml version="1.0" encoding="utf-8"?>
<!-- Generator: Adobe Illustrator 25.3.0, SVG Export Plug-In . SVG Version: 6.00 Build 0)  -->
<svg version="1.1" id="bold" xmlns="http://www.w3.org/2000/svg" xmlns:xlink="http://www.w3.org/1999/xlink" x="0px" y="0px"
	 viewBox="0 0 512 512" style="enable-background:new 0 0 512 512;" xml:space="preserve">
<style type="text/css">
	.st0{fill:#EEEDED;}
	.st1{fill:#7C83FD;}
	.st2{fill:#006BC0;}
	.st3{fill:#0096DC;}
	.st4{fill:#FFFFFF;}
</style>
<g>
	<path class="st0" d="M52.5,123.5c-7.1,4.1-13,14.2-13,22.5v220c0,8.2,5.8,18.4,13,22.5l190.5,110c7.1,4.1,18.8,4.1,26,0l190.5-110
		c7.1-4.1,13-14.2,13-22.5V146c0-8.2-5.8-18.4-13-22.5L269,13.5c-7.1-4.1-18.8-4.1-26,0L52.5,123.5z"/>
</g>
<g>
	<path class="st1" d="M431,256c0,56.3-26.6,106.3-67.8,138.4c-29.6,23-66.8,36.6-107.2,36.6s-77.6-13.7-107.2-36.6
		C107.6,362.3,81,312.3,81,256c0-96.6,78.4-175,175-175S431,159.4,431,256z"/>
	<path class="st2" d="M383.1,162.7l-20,231.7c-29.6,23-66.8,36.6-107.2,36.6s-77.6-13.7-107.2-36.6l-20-231.7H383.1z"/>
	<polygon class="st3" points="256,184.5 256,426.4 339.6,402.8 358.2,184.5 	"/>
	<polygon class="st4" points="329.9,279.1 269.6,279.1 332.6,247 335.3,214.8 176.7,214.8 179.5,247.7 243.1,247.7 182.1,278.2 
		184.9,311.9 184.9,311.9 293.9,311.9 290.3,352 256,361.2 220.3,351.2 219.4,326.2 186.1,326.2 190.3,375.5 256,394.1 321.7,375.5 
			"/>
</g>
</svg>
