<?xml version="1.0" encoding="utf-8"?>
<!-- Generator: Adobe Illustrator 25.3.0, SVG Export Plug-In . SVG Version: 6.00 Build 0)  -->
<svg version="1.1" id="bold" xmlns="http://www.w3.org/2000/svg" xmlns:xlink="http://www.w3.org/1999/xlink" x="0px" y="0px"
	 viewBox="0 0 512 512" style="enable-background:new 0 0 512 512;" xml:space="preserve">
<style type="text/css">
	.st0{fill:#EEEDED;}
	.st1{fill:#F9CF93;}
	.st2{fill:#F05133;}
</style>
<g>
	<path class="st0" d="M52.5,123.5c-7.1,4.1-13,14.2-13,22.5v220c0,8.2,5.8,18.4,13,22.5l190.5,110c7.1,4.1,18.8,4.1,26,0l190.5-110
		c7.1-4.1,13-14.2,13-22.5V146c0-8.2-5.8-18.4-13-22.5L269,13.5c-7.1-4.1-18.8-4.1-26,0L52.5,123.5z"/>
</g>
<g>
	<path class="st1" d="M431,256c0,5.4-0.2,10.8-0.7,16c-0.4,4.2-0.9,8.3-1.6,12.4C415.1,367.6,343,431,256,431
		c-44.3,0-84.7-16.5-115.6-43.6c-11.4-10-21.5-21.5-29.9-34.2C91.9,325.4,81,292,81,256c0-96.6,78.4-175,175-175S431,159.4,431,256z
		"/>
	<path class="st2" d="M371.1,245.3L266.6,140.9c-6-6-15.8-6-21.8,0l-21.7,21.7l27.5,27.5c6.4-2.2,13.7-0.7,18.8,4.4
		c5.1,5.1,6.6,12.5,4.3,18.9l26.5,26.5c6.4-2.2,13.8-0.8,18.9,4.3c7.2,7.2,7.2,18.8,0,25.9c-7.2,7.2-18.8,7.2-25.9,0
		c-5.4-5.4-6.7-13.3-4-19.9l-24.7-24.7v65.1c1.7,0.9,3.4,2,4.8,3.5c7.2,7.2,7.2,18.8,0,25.9c-7.2,7.2-18.8,7.2-25.9,0
		c-7.2-7.2-7.2-18.8,0-25.9c1.8-1.8,3.8-3.1,6-4v-65.7c-2.2-0.9-4.2-2.2-6-4c-5.4-5.4-6.7-13.4-3.9-20l-27.1-27.1l-71.6,71.6
		c-6,6-6,15.8,0,21.8l104.5,104.5c6,6,15.8,6,21.8,0l104-104C377.1,261.1,377.1,251.4,371.1,245.3"/>
</g>
</svg>
