<?xml version="1.0" encoding="utf-8"?>
<!-- Generator: Adobe Illustrator 25.3.0, SVG Export Plug-In . SVG Version: 6.00 Build 0)  -->
<svg version="1.1" id="Capa_1" xmlns="http://www.w3.org/2000/svg" xmlns:xlink="http://www.w3.org/1999/xlink" x="0px" y="0px"
	 viewBox="0 0 512 512" style="enable-background:new 0 0 512 512;" xml:space="preserve">
<style type="text/css">
	.st0{fill:#E12829;}
	.st1{fill:#FEFEFE;}
	.st2{fill:#FDFDFE;}
</style>
<g>
	<g>
		<path class="st0" d="M447.5,88.3c0,111.4,0,222.9,0,334.4c-1.8,8.5-2.7,17.6-12.1,21.6c-6,2.5-12.5,3-19,3
			c-96.3,0-192.6,0.1-288.9-0.1c-14.6,0-29.3,1.3-43.9-1.2c-10.6-1.8-16-7.3-17.9-18c-0.8-4.7-1.2-9.3-1.2-14.1
			c0-105.7,0-211.4,0-317.2c0-1,0,0.2,0-0.8c0.9-22.4,3.3-28.4,24.6-31.7c111.5,0,223,0,334.5,0c1,1,2.3,0.6,3.5,0.8
			c13.5,2.2,17.4,6.1,19.6,19.6C446.9,86,446.6,87.3,447.5,88.3z"/>
	</g>
	<g>
		<g>
			<path class="st1" d="M258.8,359.7c-20.1-0.3-38.9-0.5-57.5-3.6c-41.3-6.8-62.6-31.5-65.8-76.8c-1.8-25,3-48,17.4-68.1
				c2.4-3.3,2.9-6,1.9-10.2c-3.4-14.4-4.1-28.8,2.1-42.8c1.9-4.2,4-6.2,8.5-5.9c15.6,1,30.4,4.9,43.2,15.2c3.8,3.1,7.2,3.9,12,2.9
				c23.9-5.1,47.9-5.9,71.9-0.5c4.7,1.1,8.4-0.2,12.2-3.2c12.6-10,27.1-13.5,42.4-14.6c4.5-0.3,6.7,1.6,8.5,5.8
				c5.9,13.3,5.5,27.1,2.6,40.9c-1.1,5.1-0.4,8.6,2.3,13.1c20.5,33.9,20.3,70,6.8,106.2c-7.8,20.9-25.2,30.4-44.4,35.6
				C301.5,359.8,279.5,359.2,258.8,359.7z"/>
			<path class="st0" d="M256.4,349.7c-16.6,0.4-33.2,0.3-49.5-4.1c-30.4-8.2-45-35.4-36-66.5c5.6-19.4,20-30.4,38.6-27.9
				c29.6,3.9,59,5.6,88.8,0.4c22.5-3.9,37.4,6.7,43.4,27.3c6.8,23.1-0.8,47.5-18.6,58.9c-14.5,9.3-30.7,11-47,11.8
				C269.5,349.9,262.9,349.7,256.4,349.7z"/>
			<path class="st2" d="M228.7,295.9c-0.1,0.8-0.3,2.5-0.5,4.2c-2.1,15.2-9.3,25.1-18.4,24.8c-8.7-0.3-16.4-11.1-17.9-25.6
				c-0.9-8.7,0.8-17,5-24.5c7-12.5,19.3-12.5,26.5-0.2C226.4,279.6,228.7,288.6,228.7,295.9z"/>
			<path class="st2" d="M321,295.5c-0.2,1.4-0.4,3.1-0.6,4.7c-2,15.1-9.3,24.9-18.3,24.6c-8.5-0.3-15.9-10.3-17.7-24.4
				c-1.3-9.7,0.6-18.9,5.6-27.1c6.6-10.7,17.9-10.6,24.8-0.2C319.1,279.8,320.4,287.4,321,295.5z"/>
		</g>
	</g>
</g>
</svg>
