<?xml version="1.0" encoding="utf-8"?>
<!-- Generator: Adobe Illustrator 25.3.0, SVG Export Plug-In . SVG Version: 6.00 Build 0)  -->
<svg version="1.1" id="bold" xmlns="http://www.w3.org/2000/svg" xmlns:xlink="http://www.w3.org/1999/xlink" x="0px" y="0px"
	 viewBox="0 0 512 512" style="enable-background:new 0 0 512 512;" xml:space="preserve">
<style type="text/css">
	.st0{fill:#EEEDED;}
	.st1{fill:#FF616D;}
	.st2{fill:#E64C18;}
	.st3{fill:#F36518;}
	.st4{fill:#FFFFFF;}
</style>
<g>
	<path class="st0" d="M52.5,123.5c-7.1,4.1-13,14.2-13,22.5v220c0,8.2,5.8,18.4,13,22.5l190.5,110c7.1,4.1,18.8,4.1,26,0l190.5-110
		c7.1-4.1,13-14.2,13-22.5V146c0-8.2-5.8-18.4-13-22.5L269,13.5c-7.1-4.1-18.8-4.1-26,0L52.5,123.5z"/>
</g>
<g>
	<path class="st1" d="M431,256c0,56.3-26.6,106.3-67.8,138.4c-29.6,23-66.8,36.6-107.2,36.6c-40,0-76.9-13.4-106.4-36
		C107.9,363,81,312.6,81,256c0-96.6,78.4-175,175-175S431,159.4,431,256z"/>
	<path class="st2" d="M383.1,162.7l-20,231.7c-29.6,23-66.8,36.6-107.2,36.6c-40,0-76.9-13.4-106.4-36l-20-232.3H383.1z"/>
	<polygon class="st3" points="256.4,184.4 256.4,425.6 339.7,402.1 358.3,184.4 	"/>
	<polygon class="st4" points="177.3,214.7 185.5,311.4 294.1,311.4 290.6,351.4 256.4,360.7 220.8,350.7 219.9,325.8 186.7,325.8 
		190.9,374.9 256.4,393.4 321.9,374.9 330,278.8 215.6,278.8 212.8,247.4 212.8,247.4 332.7,246.8 335.4,214.7 	"/>
</g>
</svg>
