<?xml version="1.0" encoding="utf-8"?>
<!-- Generator: Adobe Illustrator 25.3.0, SVG Export Plug-In . SVG Version: 6.00 Build 0)  -->
<svg version="1.1" id="bold" xmlns="http://www.w3.org/2000/svg" xmlns:xlink="http://www.w3.org/1999/xlink" x="0px" y="0px"
	 viewBox="0 0 512 512" style="enable-background:new 0 0 512 512;" xml:space="preserve">
<style type="text/css">
	.st0{fill:#EEEDED;}
	.st1{fill:#F6DE1E;}
	.st2{fill:#3F4A43;}
</style>
<g>
	<path class="st0" d="M52.5,123.5c-7.1,4.1-13,14.2-13,22.5v220c0,8.2,5.8,18.4,13,22.5l190.5,110c7.1,4.1,18.8,4.1,26,0l190.5-110
		c7.1-4.1,13-14.2,13-22.5V146c0-8.2-5.8-18.4-13-22.5L269,13.5c-7.1-4.1-18.8-4.1-26,0L52.5,123.5z"/>
</g>
<g>
	<path class="st1" d="M431,256c0,22.8-4.4,44.6-12.3,64.6c-4.2,10.7-9.5,20.9-15.7,30.4c-7.7,11.9-16.8,22.8-27,32.4
		c-6,5.7-12.4,10.9-19.2,15.7C328.3,419.2,293.5,431,256,431s-72.3-11.8-100.8-31.9c-8.5-6-16.4-12.7-23.6-20
		C100.3,347.4,81,304,81,256s19.3-91.4,50.6-123c7.7-7.8,16.1-14.8,25.1-21c28.2-19.6,62.4-31,99.3-31s71.1,11.4,99.3,30.9
		c6.9,4.8,13.4,10,19.5,15.7c10.7,9.9,20.2,21.2,28.2,33.5c6.2,9.5,11.4,19.7,15.7,30.4C426.6,211.4,431,233.2,431,256z"/>
	<g>
		<path class="st2" d="M348.3,240.3c-4.9-14.1-24.8-14.1-28.7-2.4c-3.9,11.7,9.3,18.5,29.7,25.3c20.5,6.8,33.1,24.8,30.7,40.9
			s-9.3,37-49.7,37c-25.3,0-39.3-15.8-46.3-27.6l22.9-13.8c0,0,7.8,16.6,22.4,16.6s20.5-4.9,20.5-16.1c0-13.6-47.2-18.5-54.6-41.9
			s2.4-56.5,36.5-54.1c21.3,1.5,33.3,12,39.3,19.6L348.3,240.3z"/>
		<path class="st2" d="M242.1,206.6c0,0,0,82.3,0,93.5c0,11.2-9.7,17-19.5,15.1c-9.7-1.9-14.1-13.6-14.1-13.6l-22.4,15.1
			c0,0,4.9,22.4,35.6,24.4c30.7,1.9,48.2-16.6,48.2-32.1s0-102.3,0-102.3L242.1,206.6L242.1,206.6z"/>
	</g>
	<circle class="st2" cx="141.1" cy="312.8" r="27.8"/>
</g>
</svg>
