<?xml version="1.0" encoding="utf-8"?>
<!-- Generator: Adobe Illustrator 25.3.0, SVG Export Plug-In . SVG Version: 6.00 Build 0)  -->
<svg version="1.1" id="Capa_1" xmlns="http://www.w3.org/2000/svg" xmlns:xlink="http://www.w3.org/1999/xlink" x="0px" y="0px"
	 viewBox="0 0 512 512" style="enable-background:new 0 0 512 512;" xml:space="preserve">
<style type="text/css">
	.st0{fill:#0B66C2;}
	.st1{fill:#FEFEFE;}
</style>
<g>
	<path class="st0" d="M447.6,88.4c0,111.5,0,222.9,0,334.4c-3.3,21-10.1,24.5-31.4,24.5c-106.5,0.2-212.9,0.1-319.4,0.1
		c-24.7,0-32.2-7.6-32.2-32.6c0-100.7,0-201.4,0-302.1c0-9.4-0.8-18.9,0.9-28.3c2.2-12.4,6.2-16.5,18.7-18.7c1.7-0.3,3.5-0.1,5-1.1
		c111.5,0,223,0,334.5,0c1,1,2.3,0.6,3.5,0.8c13.7,2.3,17.3,5.9,19.6,19.6C446.9,86.2,446.6,87.4,447.6,88.4z"/>
</g>
<g>
	<path class="st1" d="M268.5,233.8c7.3-9.1,16-15.6,27.2-18.4c13.2-3.4,26.4-3.5,39.6-0.1c19.1,5,29.8,18.4,35.1,36.8
		c3.4,11.7,4.4,23.8,4.5,35.9c0.2,26.2,0.1,52.4,0.1,78.5c0,6.7-2.6,9.3-9.3,9.3c-11.2,0-22.4,0-33.7,0c-6.2,0-8.9-2.6-8.9-8.9
		c0-23.1,0-46.1,0-69.2c0-8.2-0.1-16.5-2.8-24.4c-3.1-9.1-9-15.1-18.8-16.5c-10.9-1.5-20,1.5-26.2,11.1c-4.9,7.7-6.9,16.2-6.9,25.2
		c-0.1,24.1,0,48.1,0,72.2c0,8.2-2.2,10.4-10.4,10.4c-10.3,0-20.7,0-31,0c-6.4,0-9-2.7-9-9.1c0-47.4,0-94.8,0-142.1
		c0-6.5,2.5-9.1,9-9.1c10.8,0,21.7,0,32.5,0c6.5,0,9,2.6,9.1,9.1C268.5,227.5,268.5,230.7,268.5,233.8z"/>
	<path class="st1" d="M144.5,295.5c0-23.3,0-46.6,0-69.9c0-7.6,2.7-10.3,10.4-10.3c10,0,19.9,0,29.9,0c7.5,0,10.3,2.7,10.3,10.1
		c0,46.7,0,93.5,0,140.2c0,7.3-2.9,10.1-10.2,10.1c-9.8,0-19.7,0-29.5,0c-8.2,0-10.8-2.6-10.8-10.6
		C144.4,341.9,144.5,318.7,144.5,295.5z"/>
	<path class="st1" d="M202.3,169.2c-0.1,18-14.7,32.4-32.8,32.3c-18-0.1-32.5-14.7-32.5-32.7c0-17.9,14.8-32.6,32.7-32.5
		C188,136.3,202.5,151,202.3,169.2z"/>
</g>
</svg>
