<?xml version="1.0" encoding="utf-8"?>
<!-- Generator: Adobe Illustrator 25.3.0, SVG Export Plug-In . SVG Version: 6.00 Build 0)  -->
<svg version="1.1" id="Capa_1" xmlns="http://www.w3.org/2000/svg" xmlns:xlink="http://www.w3.org/1999/xlink" x="0px" y="0px"
	 viewBox="0 0 400 100" style="enable-background:new 0 0 400 100;" xml:space="preserve">
<style type="text/css">
	.st0{display:none;}
	.st1{fill:#FFFFFF;}
	.st2{fill:#00A19D;}
	.st3{fill:#FCD2D1;}
	.st4{fill:#FE8F8F;}
</style>
<rect x="0" class="st0" width="400" height="100"/>
<g>
	<path class="st1" d="M45.54,90c-0.36,0-0.72,0-1.08,0c-1.47-0.16-2.59-1.1-3.81-1.81c-9.52-5.55-19.05-11.08-28.58-16.63
		c-1.38-0.8-2.07-1.93-2.07-3.56c0.01-12,0.01-24.01,0-36.01c0-1.63,0.69-2.76,2.07-3.56C21,23.24,29.92,18.06,38.84,12.86
		c1.36-0.8,2.73-1.58,4.09-2.39c0.48-0.29,1.02-0.32,1.53-0.47c0.36,0,0.72,0,1.08,0c1.47,0.16,2.59,1.1,3.81,1.81
		c9.52,5.55,19.05,11.08,28.58,16.63c1.38,0.8,2.07,1.93,2.07,3.56C79.99,44,79.99,56,80,68.01c0,1.63-0.69,2.76-2.07,3.56
		C69,76.76,60.08,81.94,51.16,87.14c-1.36,0.8-2.73,1.58-4.09,2.39C46.59,89.83,46.06,89.86,45.54,90z"/>
	<path class="st2" d="M73.59,49.98c0,5.34-0.01,10.67,0.01,16.01c0,0.47-0.13,0.73-0.55,0.97c-9.17,5.32-18.34,10.66-27.5,16
		c-0.41,0.24-0.69,0.24-1.1,0c-9.16-5.35-18.32-10.68-27.5-16c-0.41-0.24-0.55-0.49-0.55-0.97c0.02-10.67,0.01-21.35,0-32.02
		c0-0.44,0.13-0.68,0.51-0.91c9.2-5.34,18.38-10.68,27.57-16.04c0.38-0.22,0.65-0.23,1.03,0c9.18,5.36,18.37,10.71,27.57,16.04
		c0.44,0.25,0.52,0.54,0.51,0.99C73.58,39.36,73.59,44.67,73.59,49.98z"/>
	<path class="st3" d="M36.52,60.88c-0.02-0.56,0.16-1.07,0.4-1.56c3.54-7.14,7.09-14.28,10.63-21.42c0.62-1.26,1.61-1.95,3.01-1.92
		c1.28,0.03,2.36,0.89,2.78,2.12c0.32,0.94,0.13,1.83-0.3,2.7c-2.48,4.98-4.95,9.97-7.42,14.95c-1.07,2.16-2.1,4.33-3.21,6.47
		c-1.18,2.29-4.11,2.46-5.42,0.36C36.65,62.06,36.49,61.49,36.52,60.88z"/>
	<path class="st4" d="M30.49,60.97C29.36,61,28.61,60.63,27.99,60c-2.54-2.55-5.09-5.1-7.61-7.68c-1.4-1.43-1.39-3.21,0-4.64
		c2.5-2.56,5.02-5.1,7.55-7.62c1.35-1.35,3.25-1.39,4.49-0.15c1.27,1.26,1.22,3.19-0.15,4.59c-1.65,1.69-3.31,3.37-4.99,5.02
		c-0.39,0.38-0.38,0.59,0,0.97c1.7,1.67,3.39,3.35,5.04,5.08c1.74,1.82,1.12,4.55-1.16,5.27C30.88,60.93,30.57,60.95,30.49,60.97z"
		/>
	<path class="st4" d="M59.5,39.03c1.13-0.03,1.88,0.34,2.51,0.97c2.56,2.57,5.13,5.14,7.66,7.74c1.34,1.37,1.34,3.15,0.01,4.53
		c-2.53,2.6-5.09,5.18-7.66,7.73c-1.32,1.31-3.21,1.32-4.44,0.1c-1.25-1.24-1.23-3.17,0.09-4.53c1.66-1.71,3.34-3.4,5.04-5.08
		c0.38-0.38,0.39-0.58,0-0.97c-1.7-1.67-3.39-3.35-5.04-5.08c-1.74-1.82-1.13-4.55,1.16-5.27C59.11,39.08,59.42,39.05,59.5,39.03z"
		/>
</g>
<g>
	<path class="st1" d="M91.35,42.19c0.01,0.62,0.19,1.17,0.54,1.66s0.8,0.96,1.36,1.4s1.21,0.87,1.92,1.29
		c0.72,0.42,1.45,0.86,2.21,1.32c0.75,0.46,1.49,0.96,2.21,1.5s1.36,1.16,1.93,1.85c0.57,0.69,1.03,1.46,1.38,2.33
		s0.54,1.85,0.57,2.94v0.18c0,1.2-0.15,2.25-0.44,3.14s-0.68,1.66-1.16,2.31s-1.05,1.18-1.69,1.59c-0.64,0.42-1.32,0.75-2.03,1
		c-0.71,0.25-1.43,0.42-2.15,0.53c-0.73,0.1-1.41,0.16-2.05,0.18h-0.22c-1.25,0-2.34-0.12-3.27-0.37s-1.74-0.58-2.42-1
		c-0.67-0.42-1.23-0.9-1.68-1.44s-0.8-1.1-1.07-1.68c-0.26-0.58-0.45-1.15-0.57-1.73s-0.18-1.11-0.18-1.6
		c0-0.51,0.09-0.96,0.26-1.34s0.41-0.69,0.69-0.93c0.29-0.24,0.62-0.42,0.99-0.54c0.37-0.12,0.77-0.18,1.18-0.18
		c0.38,0,0.77,0.06,1.18,0.18c0.4,0.12,0.77,0.3,1.1,0.54c0.33,0.24,0.6,0.55,0.81,0.92c0.21,0.37,0.33,0.81,0.34,1.31
		c0.03,1.1,0.28,1.85,0.75,2.25c0.47,0.4,1.14,0.6,2.02,0.6c0.44-0.01,0.85-0.07,1.22-0.17c0.37-0.09,0.69-0.26,0.96-0.5
		c0.26-0.24,0.47-0.56,0.63-0.97c0.15-0.4,0.23-0.91,0.23-1.53c0-0.76-0.17-1.45-0.52-2.07s-0.79-1.19-1.35-1.71
		s-1.19-1.03-1.91-1.5c-0.72-0.48-1.45-0.95-2.2-1.43c-0.75-0.48-1.48-0.97-2.19-1.49c-0.71-0.52-1.35-1.09-1.92-1.7
		s-1.03-1.3-1.37-2.04s-0.52-1.6-0.54-2.55v-0.35c0.01-1.57,0.22-2.87,0.63-3.91s1-1.87,1.78-2.48c0.78-0.62,1.75-1.05,2.89-1.31
		s2.45-0.38,3.93-0.38h0.57c1.35,0,2.49,0.15,3.43,0.44s1.72,0.67,2.34,1.12s1.11,0.97,1.47,1.54c0.36,0.57,0.63,1.14,0.8,1.69
		s0.29,1.08,0.33,1.56s0.07,0.87,0.07,1.16c0,0.44-0.08,0.84-0.25,1.2c-0.17,0.36-0.4,0.66-0.68,0.91
		c-0.29,0.25-0.62,0.44-1.01,0.58c-0.39,0.14-0.81,0.21-1.26,0.21c-0.35,0-0.7-0.07-1.05-0.21c-0.35-0.14-0.67-0.32-0.94-0.54
		s-0.51-0.47-0.68-0.76c-0.18-0.29-0.26-0.58-0.26-0.87c0-1.2-0.22-2.04-0.65-2.5s-1.07-0.7-1.9-0.7c-0.4,0-0.78,0.02-1.15,0.07
		c-0.37,0.04-0.7,0.16-0.99,0.36c-0.29,0.2-0.51,0.5-0.68,0.91C91.44,40.86,91.35,41.44,91.35,42.19z"/>
	<path class="st1" d="M124.93,60.25c0,0.62-0.02,1.22-0.07,1.81c-0.04,0.59-0.18,1.12-0.4,1.59s-0.55,0.85-0.99,1.13
		c-0.44,0.29-1.05,0.43-1.85,0.43c-0.81,0-1.44-0.14-1.89-0.41c-0.45-0.27-0.79-0.6-1.01-0.99c-0.22-0.39-0.36-0.79-0.41-1.22
		c-0.05-0.42-0.08-0.78-0.08-1.08c-0.13,0.42-0.32,0.86-0.56,1.3c-0.24,0.44-0.55,0.83-0.93,1.19s-0.84,0.64-1.37,0.87
		c-0.54,0.23-1.16,0.34-1.88,0.34c-0.81,0-1.61-0.13-2.42-0.4s-1.53-0.7-2.18-1.32s-1.17-1.42-1.57-2.41
		c-0.4-0.99-0.6-2.21-0.6-3.66v-6.37c0-1.47,0.2-2.69,0.6-3.68c0.4-0.99,0.93-1.79,1.57-2.39s1.37-1.04,2.18-1.31s1.61-0.4,2.42-0.4
		c0.72,0,1.34,0.11,1.88,0.33c0.53,0.22,0.99,0.51,1.37,0.86s0.69,0.75,0.93,1.19c0.24,0.44,0.43,0.88,0.56,1.32
		c0-0.73,0.1-1.34,0.31-1.82s0.47-0.87,0.79-1.15c0.32-0.29,0.68-0.48,1.09-0.59c0.4-0.11,0.8-0.17,1.2-0.17
		c0.73,0,1.32,0.14,1.76,0.43c0.44,0.29,0.77,0.66,1,1.12c0.23,0.46,0.37,1,0.44,1.6c0.07,0.61,0.1,1.23,0.1,1.86V60.25z
		 M113.5,56.87c0,0.4,0.01,0.78,0.04,1.16s0.11,0.73,0.24,1.03s0.33,0.55,0.58,0.74c0.26,0.18,0.61,0.27,1.07,0.27
		c0.57,0,1.04-0.13,1.4-0.38c0.36-0.26,0.64-0.65,0.85-1.19c0.21-0.53,0.35-1.21,0.43-2.02c0.08-0.81,0.13-1.78,0.14-2.91
		c0-0.45-0.04-0.98-0.12-1.57c-0.08-0.59-0.22-1.15-0.43-1.68s-0.49-0.97-0.86-1.34s-0.83-0.55-1.41-0.55
		c-0.45,0-0.81,0.09-1.07,0.27c-0.26,0.18-0.45,0.42-0.58,0.71s-0.21,0.63-0.24,1c-0.03,0.37-0.04,0.75-0.04,1.13V56.87z"/>
	<path class="st1" d="M130.38,39.33c0-0.62,0.03-1.22,0.1-1.8c0.07-0.59,0.22-1.11,0.45-1.56s0.57-0.82,1.01-1.1
		s1.03-0.42,1.78-0.42c0.76,0,1.36,0.14,1.8,0.42s0.77,0.64,1,1.1c0.23,0.45,0.37,0.97,0.44,1.56c0.07,0.59,0.1,1.19,0.1,1.8V60.3
		c0,0.62-0.03,1.22-0.1,1.81c-0.07,0.59-0.21,1.12-0.44,1.58c-0.23,0.46-0.56,0.83-1,1.11s-1.04,0.42-1.8,0.42
		c-0.75,0-1.34-0.14-1.78-0.42s-0.78-0.65-1.01-1.11c-0.23-0.46-0.38-0.99-0.45-1.58c-0.07-0.59-0.1-1.2-0.1-1.81V39.33z"/>
	<path class="st1" d="M160.74,52.69c0,0.23-0.01,0.51-0.04,0.82c-0.03,0.31-0.14,0.62-0.34,0.9c-0.2,0.29-0.51,0.53-0.93,0.74
		s-1.03,0.31-1.8,0.31h-8.75v2.11c0,0.35,0.04,0.72,0.13,1.1s0.24,0.73,0.45,1.05s0.49,0.59,0.85,0.79s0.78,0.31,1.3,0.31
		c0.59,0,1.04-0.07,1.35-0.21c0.31-0.14,0.56-0.31,0.75-0.52c0.18-0.21,0.35-0.42,0.49-0.66s0.34-0.45,0.58-0.66
		c0.24-0.21,0.58-0.38,1.01-0.52c0.43-0.14,1.03-0.21,1.79-0.21c0.37,0,0.72,0.03,1.07,0.09s0.65,0.17,0.91,0.33
		s0.48,0.38,0.64,0.67c0.16,0.29,0.24,0.66,0.24,1.11c0,0.95-0.3,1.75-0.9,2.38c-0.6,0.64-1.35,1.15-2.26,1.53s-1.89,0.65-2.96,0.81
		c-1.06,0.16-2.05,0.24-2.98,0.24c-1.22-0.01-2.37-0.17-3.47-0.46s-2.07-0.76-2.91-1.41c-0.84-0.64-1.51-1.49-2.01-2.53
		s-0.75-2.31-0.75-3.82v-5.14c0-1.39,0.17-2.57,0.49-3.54c0.33-0.97,0.76-1.77,1.29-2.42s1.12-1.15,1.78-1.51
		c0.66-0.36,1.33-0.63,2-0.8s1.31-0.29,1.92-0.33s1.13-0.07,1.57-0.07c1.48,0,2.74,0.13,3.79,0.4s1.92,0.61,2.63,1.03
		s1.26,0.92,1.67,1.47s0.72,1.13,0.92,1.72c0.21,0.59,0.34,1.19,0.4,1.8c0.06,0.61,0.09,1.18,0.09,1.7V52.69z M148.88,52.17h5.49
		c0-0.69-0.02-1.3-0.05-1.84c-0.04-0.53-0.15-0.98-0.33-1.35s-0.47-0.64-0.86-0.83c-0.39-0.19-0.94-0.29-1.66-0.29
		c-0.6,0-1.07,0.1-1.42,0.29c-0.34,0.19-0.6,0.43-0.78,0.71c-0.18,0.29-0.29,0.59-0.33,0.91s-0.07,0.61-0.07,0.86V52.17z"/>
	<path class="st1" d="M180.34,65.22c-0.75,0-1.34-0.14-1.78-0.43c-0.44-0.29-0.78-0.66-1.01-1.13s-0.38-1-0.45-1.59
		c-0.07-0.59-0.1-1.2-0.1-1.81v-8.7c0-0.4-0.02-0.78-0.05-1.17c-0.04-0.38-0.12-0.72-0.25-1.01s-0.33-0.53-0.58-0.71
		c-0.26-0.18-0.6-0.27-1.04-0.27c-0.59,0-1.06,0.2-1.43,0.59s-0.66,0.93-0.87,1.61c-0.21,0.68-0.36,1.48-0.44,2.41
		c-0.08,0.92-0.12,1.92-0.12,2.99v4.26c0,0.62-0.03,1.22-0.1,1.81c-0.07,0.59-0.21,1.12-0.44,1.59c-0.23,0.47-0.56,0.85-1,1.13
		c-0.44,0.29-1.04,0.43-1.8,0.43s-1.36-0.14-1.8-0.43c-0.44-0.29-0.77-0.66-1-1.13s-0.37-1-0.44-1.59c-0.07-0.59-0.1-1.2-0.1-1.81
		V48.21c0-0.62,0.03-1.22,0.08-1.81c0.05-0.59,0.19-1.12,0.41-1.59s0.55-0.85,1-1.13c0.45-0.29,1.07-0.43,1.86-0.43
		c0.81,0,1.43,0.14,1.88,0.41c0.45,0.27,0.78,0.6,1,0.99s0.35,0.79,0.4,1.22s0.07,0.78,0.07,1.08c0.13-0.42,0.34-0.86,0.63-1.3
		c0.29-0.44,0.65-0.83,1.09-1.19s0.94-0.64,1.52-0.87s1.21-0.34,1.91-0.34c0.97,0,1.9,0.23,2.81,0.7s1.68,1.23,2.33,2.29
		c0.22-0.5,0.54-0.93,0.97-1.31c0.42-0.37,0.91-0.68,1.45-0.93s1.12-0.44,1.74-0.56c0.62-0.12,1.22-0.19,1.82-0.19
		c0.81,0,1.61,0.13,2.42,0.4s1.53,0.7,2.18,1.32s1.17,1.42,1.57,2.41c0.4,0.99,0.6,2.21,0.6,3.66v9.23c0,0.62-0.04,1.22-0.11,1.81
		c-0.07,0.59-0.23,1.12-0.46,1.59s-0.58,0.85-1.02,1.13c-0.45,0.29-1.04,0.43-1.79,0.43c-0.76,0-1.37-0.14-1.81-0.43
		c-0.45-0.29-0.79-0.66-1.02-1.13s-0.38-1-0.45-1.59c-0.07-0.59-0.1-1.2-0.1-1.81v-8.7c0-0.4-0.02-0.78-0.07-1.17
		s-0.13-0.72-0.26-1.01s-0.33-0.53-0.59-0.71c-0.26-0.18-0.62-0.27-1.05-0.27c-0.47,0-0.87,0.15-1.2,0.44
		c-0.33,0.29-0.6,0.7-0.82,1.21s-0.39,1.12-0.51,1.83c-0.12,0.71-0.2,1.48-0.24,2.32v6.06c0,0.62-0.03,1.22-0.1,1.81
		c-0.07,0.59-0.22,1.12-0.45,1.59s-0.58,0.85-1.02,1.13C181.71,65.08,181.1,65.22,180.34,65.22z"/>
	<path class="st1" d="M232.59,58.1c-0.42,0-0.79-0.08-1.09-0.24c-0.3-0.16-0.56-0.37-0.78-0.62c-0.22-0.25-0.41-0.53-0.56-0.83
		c-0.15-0.31-0.28-0.61-0.38-0.9l-4.17-12.04h-0.57v18.33c0,0.47-0.03,0.91-0.09,1.32s-0.19,0.77-0.38,1.09
		c-0.2,0.31-0.49,0.56-0.88,0.75c-0.39,0.18-0.92,0.27-1.59,0.27c-0.76,0-1.36-0.09-1.8-0.27c-0.44-0.18-0.77-0.43-0.99-0.75
		c-0.22-0.32-0.36-0.68-0.42-1.09s-0.09-0.85-0.09-1.32V39.47c0-0.63,0.02-1.25,0.05-1.85c0.04-0.6,0.16-1.14,0.36-1.6
		c0.2-0.47,0.53-0.85,0.98-1.13c0.45-0.29,1.08-0.43,1.9-0.43h2.99c0.5,0,0.92,0.02,1.26,0.05c0.34,0.04,0.66,0.16,0.96,0.37
		c0.29,0.21,0.58,0.55,0.87,1.02c0.29,0.47,0.6,1.13,0.95,1.99c0.34,0.86,0.74,1.95,1.2,3.27s1.01,2.96,1.67,4.89l0.57,1.76h0.53
		l0.7-2.2c0.6-1.85,1.11-3.41,1.54-4.68s0.8-2.33,1.12-3.15c0.32-0.83,0.61-1.46,0.87-1.91c0.26-0.45,0.53-0.78,0.81-0.99
		c0.29-0.21,0.6-0.34,0.93-0.37c0.34-0.04,0.75-0.05,1.23-0.05h3.21c0.82,0,1.45,0.14,1.9,0.43c0.45,0.29,0.77,0.66,0.98,1.13
		c0.2,0.47,0.33,1,0.36,1.6c0.04,0.6,0.05,1.22,0.05,1.85v22.32c0,0.47-0.03,0.91-0.09,1.32s-0.2,0.77-0.42,1.09
		c-0.22,0.31-0.55,0.56-0.99,0.75c-0.44,0.18-1.04,0.27-1.8,0.27c-0.67,0-1.21-0.09-1.59-0.27c-0.39-0.18-0.68-0.43-0.88-0.75
		c-0.2-0.32-0.33-0.68-0.38-1.09s-0.09-0.85-0.09-1.32V43.46h-0.62l-4.13,12.04c-0.12,0.29-0.25,0.59-0.4,0.9s-0.33,0.59-0.55,0.83
		c-0.22,0.25-0.48,0.45-0.77,0.62s-0.64,0.24-1.05,0.24H232.59z"/>
	<path class="st1" d="M270.43,60.25c0,0.62-0.02,1.22-0.07,1.81c-0.04,0.59-0.18,1.12-0.39,1.59c-0.22,0.47-0.55,0.85-0.99,1.13
		c-0.44,0.29-1.05,0.43-1.85,0.43c-0.81,0-1.44-0.14-1.89-0.41c-0.45-0.27-0.79-0.6-1.01-0.99c-0.22-0.39-0.36-0.79-0.41-1.22
		c-0.05-0.42-0.08-0.78-0.08-1.08c-0.13,0.42-0.32,0.86-0.56,1.3c-0.24,0.44-0.55,0.83-0.93,1.19s-0.84,0.64-1.37,0.87
		c-0.54,0.23-1.16,0.34-1.88,0.34c-0.81,0-1.61-0.13-2.42-0.4s-1.53-0.7-2.17-1.32c-0.65-0.62-1.17-1.42-1.57-2.41
		c-0.4-0.99-0.6-2.21-0.6-3.66v-6.37c0-1.47,0.2-2.69,0.6-3.68c0.4-0.99,0.93-1.79,1.57-2.39c0.64-0.61,1.37-1.04,2.17-1.31
		s1.61-0.4,2.42-0.4c0.72,0,1.34,0.11,1.88,0.33c0.53,0.22,0.99,0.51,1.37,0.86s0.69,0.75,0.93,1.19c0.24,0.44,0.43,0.88,0.56,1.32
		c0-0.73,0.1-1.34,0.31-1.82s0.47-0.87,0.79-1.15c0.32-0.29,0.68-0.48,1.09-0.59c0.4-0.11,0.8-0.17,1.2-0.17
		c0.73,0,1.32,0.14,1.76,0.43c0.44,0.29,0.77,0.66,1,1.12c0.23,0.46,0.37,1,0.44,1.6c0.07,0.61,0.1,1.23,0.1,1.86V60.25z M259,56.87
		c0,0.4,0.01,0.78,0.04,1.16s0.11,0.73,0.24,1.03c0.13,0.31,0.33,0.55,0.58,0.74c0.26,0.18,0.61,0.27,1.07,0.27
		c0.57,0,1.04-0.13,1.4-0.38c0.36-0.26,0.64-0.65,0.85-1.19c0.21-0.53,0.35-1.21,0.43-2.02c0.08-0.81,0.13-1.78,0.14-2.91
		c0-0.45-0.04-0.98-0.12-1.57c-0.08-0.59-0.22-1.15-0.43-1.68c-0.21-0.53-0.49-0.97-0.86-1.34s-0.83-0.55-1.41-0.55
		c-0.45,0-0.81,0.09-1.07,0.27c-0.26,0.18-0.45,0.42-0.58,0.71c-0.13,0.29-0.21,0.63-0.24,1c-0.03,0.37-0.04,0.75-0.04,1.13V56.87z"
		/>
	<path class="st1" d="M289.72,46.54c0,1.14-0.28,1.98-0.85,2.5c-0.56,0.53-1.37,0.79-2.41,0.79c-0.15,0-0.36,0.01-0.63,0.03
		c-0.27,0.02-0.56,0.08-0.87,0.18s-0.62,0.23-0.93,0.42c-0.32,0.18-0.6,0.43-0.87,0.75c-0.26,0.32-0.48,0.71-0.64,1.2
		c-0.16,0.48-0.24,1.06-0.24,1.74v6.28c0,0.6-0.03,1.19-0.1,1.76c-0.07,0.57-0.22,1.08-0.45,1.53c-0.24,0.45-0.57,0.81-1.01,1.09
		s-1.03,0.42-1.78,0.42c-0.73,0-1.31-0.14-1.74-0.42s-0.75-0.64-0.98-1.09c-0.23-0.45-0.37-0.96-0.44-1.53
		c-0.07-0.57-0.1-1.16-0.1-1.76V48.12c0-0.62,0.03-1.21,0.1-1.79c0.07-0.58,0.21-1.09,0.44-1.55c0.23-0.45,0.55-0.82,0.98-1.09
		c0.42-0.27,1-0.41,1.74-0.41c0.75,0,1.32,0.17,1.72,0.49c0.4,0.33,0.7,0.75,0.89,1.27c0.19,0.52,0.3,1.1,0.33,1.74
		c0.03,0.64,0.04,1.26,0.04,1.86h0.35c0.21-0.82,0.48-1.56,0.81-2.23c0.34-0.67,0.71-1.23,1.12-1.69c0.41-0.46,0.85-0.82,1.32-1.07
		s0.94-0.37,1.41-0.37c0.57,0,1.04,0.06,1.4,0.19c0.36,0.12,0.64,0.32,0.85,0.58s0.34,0.6,0.42,1.01S289.72,45.97,289.72,46.54z"/>
	<path class="st1" d="M295.88,43.24v-3.87c0-0.62,0.03-1.22,0.1-1.8c0.07-0.59,0.22-1.11,0.45-1.57c0.23-0.46,0.57-0.83,1.01-1.12
		c0.44-0.29,1.03-0.43,1.78-0.43c0.73,0,1.32,0.14,1.76,0.43c0.44,0.29,0.77,0.66,1,1.12c0.23,0.46,0.37,0.99,0.44,1.57
		c0.07,0.59,0.1,1.19,0.1,1.8v3.87h1.8c0.38,0,0.76,0.02,1.14,0.05c0.38,0.04,0.72,0.14,1.02,0.32c0.3,0.18,0.54,0.44,0.73,0.79
		c0.18,0.35,0.27,0.84,0.27,1.47c0,0.6-0.09,1.08-0.27,1.43c-0.18,0.35-0.42,0.62-0.73,0.79c-0.3,0.18-0.64,0.29-1.02,0.34
		c-0.38,0.05-0.76,0.08-1.14,0.08h-1.8v7.69c0,0.29,0.01,0.6,0.03,0.93c0.02,0.33,0.1,0.63,0.23,0.91s0.33,0.51,0.59,0.69
		c0.26,0.18,0.64,0.27,1.12,0.27c0.53,0,0.98,0.04,1.35,0.12c0.37,0.08,0.68,0.22,0.92,0.43c0.24,0.21,0.42,0.49,0.54,0.86
		s0.18,0.83,0.18,1.41c0,0.59-0.14,1.09-0.41,1.52c-0.27,0.42-0.63,0.78-1.09,1.05s-0.98,0.48-1.58,0.62s-1.23,0.2-1.89,0.2
		c-1.04,0-1.93-0.11-2.67-0.33c-0.74-0.22-1.35-0.53-1.85-0.93c-0.49-0.4-0.88-0.89-1.16-1.45c-0.29-0.56-0.5-1.2-0.64-1.9
		c-0.14-0.7-0.23-1.46-0.26-2.27c-0.04-0.81-0.05-1.67-0.05-2.56v-7.25h-1.23c-0.38,0-0.76-0.03-1.13-0.08
		c-0.37-0.05-0.71-0.16-1-0.34s-0.53-0.44-0.71-0.79c-0.18-0.35-0.27-0.83-0.27-1.43c0-0.63,0.09-1.12,0.27-1.47
		c0.18-0.35,0.42-0.62,0.71-0.79s0.63-0.28,1-0.32c0.37-0.04,0.75-0.05,1.13-0.05H295.88z"/>
	<path class="st1" d="M317.32,33.75c0.4-0.26,0.81-0.4,1.23-0.4c0.38,0,0.77,0.06,1.16,0.19c0.4,0.12,0.74,0.4,1.03,0.82
		c0.18,0.26,0.3,0.53,0.37,0.79s0.11,0.5,0.11,0.7c0,0.4-0.11,0.76-0.33,1.09c-0.22,0.33-0.48,0.6-0.77,0.8l-4.83,2.94
		c-0.21,0.13-0.42,0.22-0.65,0.27c-0.23,0.05-0.45,0.08-0.67,0.08c-0.4,0-0.77-0.06-1.11-0.19c-0.34-0.12-0.66-0.4-0.96-0.82
		c-0.18-0.25-0.3-0.49-0.37-0.74c-0.07-0.24-0.11-0.46-0.11-0.67c0-0.44,0.11-0.83,0.33-1.18c0.22-0.34,0.43-0.58,0.64-0.71
		L317.32,33.75z M312.66,48.17c0-0.62,0.03-1.22,0.1-1.8c0.07-0.59,0.22-1.11,0.45-1.57c0.23-0.46,0.57-0.83,1.01-1.12
		c0.44-0.29,1.03-0.43,1.78-0.43s1.34,0.14,1.78,0.43c0.44,0.29,0.78,0.66,1.01,1.12c0.23,0.46,0.38,0.99,0.45,1.57
		c0.07,0.59,0.1,1.19,0.1,1.8V60.3c0,0.62-0.03,1.22-0.1,1.81c-0.07,0.59-0.22,1.12-0.45,1.58c-0.24,0.46-0.57,0.83-1.01,1.11
		s-1.03,0.42-1.78,0.42s-1.34-0.14-1.78-0.42s-0.78-0.65-1.01-1.11c-0.23-0.46-0.38-0.99-0.45-1.58c-0.07-0.59-0.1-1.2-0.1-1.81
		V48.17z"/>
	<path class="st1" d="M344.3,60.21c0,0.63-0.04,1.25-0.11,1.85s-0.23,1.13-0.47,1.6c-0.24,0.47-0.59,0.85-1.03,1.13
		c-0.45,0.29-1.05,0.43-1.81,0.43c-0.75,0-1.34-0.14-1.78-0.43c-0.44-0.29-0.78-0.66-1.01-1.13c-0.24-0.47-0.38-1-0.45-1.6
		c-0.07-0.6-0.1-1.22-0.1-1.85v-8.57c0-0.41-0.02-0.81-0.05-1.21c-0.04-0.4-0.12-0.74-0.25-1.04s-0.33-0.54-0.58-0.73
		c-0.26-0.18-0.6-0.27-1.04-0.27c-0.6,0-1.08,0.2-1.45,0.59s-0.66,0.94-0.87,1.63c-0.21,0.69-0.36,1.5-0.43,2.43
		c-0.07,0.93-0.11,1.93-0.11,3v4.17c0,0.63-0.04,1.25-0.11,1.85c-0.07,0.6-0.23,1.13-0.47,1.6c-0.24,0.47-0.59,0.85-1.03,1.13
		c-0.45,0.29-1.05,0.43-1.81,0.43c-0.75,0-1.34-0.14-1.78-0.43c-0.44-0.29-0.78-0.66-1.01-1.13s-0.38-1-0.45-1.6
		c-0.07-0.6-0.1-1.22-0.1-1.85v-12c0-0.63,0.02-1.24,0.07-1.83c0.04-0.59,0.18-1.12,0.39-1.58c0.22-0.46,0.55-0.83,1-1.12
		c0.45-0.29,1.07-0.43,1.88-0.43s1.44,0.14,1.89,0.41c0.45,0.27,0.79,0.6,1.02,0.98c0.23,0.38,0.37,0.78,0.43,1.21
		s0.09,0.79,0.09,1.1c0.12-0.42,0.3-0.86,0.55-1.3s0.57-0.83,0.96-1.19c0.39-0.35,0.85-0.64,1.4-0.87s1.17-0.34,1.89-0.34
		c0.81,0,1.61,0.13,2.42,0.4s1.53,0.7,2.18,1.32c0.64,0.62,1.17,1.42,1.57,2.42c0.4,1,0.6,2.23,0.6,3.69V60.21z"/>
	<path class="st1" d="M367.42,52.69c0,0.23-0.01,0.51-0.04,0.82c-0.03,0.31-0.14,0.62-0.34,0.9c-0.2,0.29-0.51,0.53-0.93,0.74
		s-1.03,0.31-1.8,0.31h-8.75v2.11c0,0.35,0.04,0.72,0.13,1.1s0.24,0.73,0.45,1.05c0.21,0.32,0.49,0.59,0.85,0.79s0.78,0.31,1.3,0.31
		c0.59,0,1.04-0.07,1.35-0.21c0.31-0.14,0.56-0.31,0.75-0.52c0.18-0.21,0.35-0.42,0.49-0.66s0.34-0.45,0.58-0.66
		c0.24-0.21,0.58-0.38,1.01-0.52c0.43-0.14,1.03-0.21,1.79-0.21c0.37,0,0.72,0.03,1.07,0.09c0.34,0.06,0.65,0.17,0.91,0.33
		s0.48,0.38,0.64,0.67c0.16,0.29,0.24,0.66,0.24,1.11c0,0.95-0.3,1.75-0.9,2.38c-0.6,0.64-1.35,1.15-2.26,1.53s-1.89,0.65-2.96,0.81
		c-1.06,0.16-2.05,0.24-2.98,0.24c-1.22-0.01-2.37-0.17-3.47-0.46s-2.07-0.76-2.91-1.41c-0.84-0.64-1.51-1.49-2.01-2.53
		s-0.75-2.31-0.75-3.82v-5.14c0-1.39,0.17-2.57,0.49-3.54c0.33-0.97,0.76-1.77,1.29-2.42s1.12-1.15,1.78-1.51
		c0.66-0.36,1.33-0.63,2-0.8s1.32-0.29,1.92-0.33c0.61-0.04,1.13-0.07,1.57-0.07c1.48,0,2.74,0.13,3.79,0.4
		c1.05,0.26,1.92,0.61,2.63,1.03s1.26,0.92,1.67,1.47s0.72,1.13,0.92,1.72c0.21,0.59,0.34,1.19,0.4,1.8
		c0.06,0.61,0.09,1.18,0.09,1.7V52.69z M355.55,52.17h5.49c0-0.69-0.02-1.3-0.05-1.84c-0.04-0.53-0.15-0.98-0.33-1.35
		c-0.18-0.37-0.47-0.64-0.86-0.83c-0.39-0.19-0.94-0.29-1.66-0.29c-0.6,0-1.07,0.1-1.42,0.29c-0.34,0.19-0.6,0.43-0.78,0.71
		c-0.18,0.29-0.29,0.59-0.33,0.91c-0.04,0.32-0.07,0.61-0.07,0.86V52.17z"/>
	<path class="st1" d="M383.63,43.24c0.41,0,0.86,0.04,1.34,0.11c0.48,0.07,0.93,0.21,1.33,0.41c0.4,0.2,0.74,0.48,1.01,0.83
		c0.27,0.36,0.41,0.82,0.41,1.37c0,0.25-0.04,0.5-0.12,0.75c-0.08,0.25-0.18,0.5-0.3,0.76c-0.12,0.26-0.25,0.51-0.38,0.76
		c-0.14,0.25-0.27,0.49-0.38,0.73l-7.65,10.68h4.83c0.51,0,1.01,0.03,1.5,0.08c0.49,0.05,0.93,0.17,1.31,0.36s0.69,0.47,0.92,0.83
		s0.35,0.86,0.35,1.49c0,0.62-0.12,1.11-0.35,1.48c-0.23,0.37-0.54,0.66-0.92,0.86c-0.38,0.2-0.82,0.33-1.31,0.38
		c-0.49,0.06-0.99,0.09-1.5,0.09h-8.66c-0.44,0-0.9-0.03-1.38-0.09c-0.48-0.06-0.93-0.18-1.34-0.37s-0.75-0.46-1.01-0.81
		s-0.4-0.82-0.4-1.41c0-0.53,0.13-1.05,0.38-1.58c0.26-0.53,0.54-1.01,0.85-1.45l7.6-10.72h-4.83c-0.51,0-1.01-0.03-1.49-0.08
		c-0.48-0.05-0.92-0.17-1.31-0.36c-0.39-0.19-0.7-0.46-0.93-0.82c-0.23-0.36-0.35-0.85-0.35-1.46c0-0.63,0.12-1.13,0.35-1.49
		s0.55-0.65,0.93-0.85c0.39-0.2,0.82-0.33,1.31-0.38s0.98-0.09,1.49-0.09H383.63z"/>
</g>
<g>
	<path class="st1" d="M106,69.79c0.65,0,1.26,0.08,1.82,0.25c0.56,0.17,1.05,0.41,1.47,0.74s0.75,0.73,0.99,1.22
		c0.24,0.49,0.36,1.06,0.36,1.71v6.66c0,0.56-0.06,1.05-0.18,1.48c-0.12,0.43-0.28,0.79-0.48,1.11c-0.2,0.31-0.42,0.58-0.67,0.79
		c-0.25,0.22-0.5,0.4-0.76,0.53c-0.62,0.33-1.31,0.52-2.09,0.56h-3.57c-0.41,0-0.72-0.07-0.95-0.21c-0.22-0.14-0.38-0.33-0.48-0.56
		c-0.1-0.23-0.16-0.5-0.18-0.79c-0.02-0.29-0.03-0.6-0.03-0.91V72.24c0-0.31,0.01-0.61,0.03-0.9c0.02-0.29,0.08-0.55,0.18-0.78
		c0.1-0.23,0.26-0.41,0.48-0.55c0.22-0.14,0.54-0.21,0.95-0.21H106z M104.51,72.31v9.97h1.4c0.31-0.01,0.58-0.09,0.83-0.21
		c0.1-0.05,0.2-0.12,0.3-0.2c0.1-0.09,0.19-0.19,0.27-0.31c0.08-0.12,0.14-0.26,0.19-0.42c0.05-0.16,0.07-0.35,0.07-0.57v-6.34
		c0-0.24-0.02-0.45-0.07-0.63c-0.05-0.18-0.11-0.34-0.19-0.48c-0.08-0.14-0.17-0.25-0.27-0.34c-0.1-0.09-0.2-0.17-0.3-0.23
		c-0.24-0.14-0.52-0.21-0.83-0.24H104.51z"/>
	<path class="st1" d="M121.62,78.71c0,0.12-0.01,0.25-0.02,0.4c-0.01,0.15-0.07,0.3-0.17,0.44s-0.25,0.26-0.46,0.36
		c-0.21,0.1-0.5,0.15-0.88,0.15h-4.28v1.03c0,0.17,0.02,0.35,0.06,0.54c0.04,0.19,0.12,0.36,0.22,0.52c0.1,0.16,0.24,0.29,0.41,0.39
		c0.17,0.1,0.38,0.15,0.63,0.15c0.29,0,0.51-0.03,0.66-0.1c0.15-0.07,0.28-0.15,0.37-0.25c0.09-0.1,0.17-0.21,0.24-0.32
		c0.07-0.11,0.17-0.22,0.28-0.32c0.12-0.1,0.28-0.18,0.49-0.25c0.21-0.07,0.5-0.1,0.88-0.1c0.18,0,0.35,0.01,0.52,0.04
		c0.17,0.03,0.32,0.08,0.45,0.16c0.13,0.08,0.23,0.19,0.31,0.33c0.08,0.14,0.12,0.32,0.12,0.54c0,0.47-0.15,0.85-0.44,1.17
		c-0.29,0.31-0.66,0.56-1.11,0.75c-0.44,0.19-0.93,0.32-1.44,0.4c-0.52,0.08-1,0.12-1.46,0.12c-0.59-0.01-1.16-0.08-1.7-0.23
		c-0.54-0.14-1.01-0.37-1.42-0.69c-0.41-0.31-0.74-0.73-0.98-1.24c-0.24-0.51-0.37-1.13-0.37-1.87V78.3c0-0.68,0.08-1.26,0.24-1.73
		s0.37-0.87,0.63-1.18c0.26-0.31,0.55-0.56,0.87-0.74s0.65-0.31,0.98-0.39c0.33-0.09,0.64-0.14,0.94-0.16
		c0.3-0.02,0.55-0.03,0.77-0.03c0.72,0,1.34,0.06,1.85,0.19c0.51,0.13,0.94,0.3,1.28,0.5c0.34,0.21,0.62,0.45,0.82,0.72
		c0.2,0.27,0.35,0.55,0.45,0.84c0.1,0.29,0.16,0.58,0.19,0.88c0.03,0.3,0.04,0.57,0.04,0.83V78.71z M115.82,78.45h2.69
		c0-0.34-0.01-0.63-0.03-0.9c-0.02-0.26-0.07-0.48-0.16-0.66c-0.09-0.18-0.23-0.31-0.42-0.41c-0.19-0.09-0.46-0.14-0.81-0.14
		c-0.29,0-0.52,0.05-0.69,0.14c-0.17,0.09-0.3,0.21-0.38,0.35s-0.14,0.29-0.16,0.45c-0.02,0.16-0.03,0.3-0.03,0.42V78.45z"/>
	<path class="st1" d="M126.67,76.91c0,0.14,0.05,0.28,0.14,0.4c0.09,0.12,0.22,0.24,0.38,0.35s0.35,0.22,0.56,0.33
		c0.21,0.11,0.43,0.21,0.66,0.32c0.35,0.17,0.71,0.36,1.07,0.55s0.7,0.43,1,0.69c0.3,0.27,0.55,0.57,0.74,0.92
		c0.19,0.35,0.28,0.76,0.28,1.23c0,0.43-0.06,0.81-0.19,1.14c-0.13,0.33-0.29,0.61-0.5,0.85c-0.21,0.24-0.45,0.44-0.73,0.6
		c-0.28,0.16-0.57,0.28-0.87,0.38c-0.3,0.09-0.61,0.16-0.93,0.2c-0.32,0.04-0.61,0.06-0.89,0.06c-0.55,0-1.03-0.05-1.44-0.14
		s-0.76-0.22-1.05-0.37c-0.29-0.15-0.54-0.33-0.73-0.53c-0.19-0.2-0.34-0.4-0.45-0.62s-0.18-0.43-0.23-0.64s-0.06-0.41-0.06-0.59
		c0-0.43,0.12-0.74,0.36-0.95c0.24-0.2,0.61-0.3,1.1-0.3c0.36,0,0.65,0.1,0.88,0.29c0.23,0.19,0.35,0.5,0.37,0.93
		c0.01,0.14,0.05,0.26,0.12,0.34s0.17,0.16,0.29,0.21s0.25,0.09,0.39,0.11c0.14,0.02,0.28,0.03,0.42,0.03
		c0.28,0,0.51-0.07,0.68-0.22c0.18-0.15,0.26-0.34,0.26-0.58c0-0.2-0.06-0.39-0.18-0.56s-0.27-0.34-0.47-0.49s-0.41-0.29-0.66-0.43
		s-0.5-0.28-0.76-0.42c-0.32-0.17-0.65-0.35-0.97-0.55c-0.33-0.19-0.62-0.41-0.89-0.64c-0.27-0.24-0.48-0.5-0.64-0.8
		c-0.17-0.3-0.25-0.64-0.25-1.02c0-0.56,0.09-1.03,0.27-1.4s0.45-0.68,0.8-0.91c0.35-0.23,0.78-0.4,1.28-0.5
		c0.5-0.1,1.08-0.16,1.72-0.17h0.17c0.58,0,1.07,0.05,1.48,0.15c0.4,0.1,0.74,0.23,1.01,0.39s0.48,0.34,0.63,0.54
		c0.15,0.2,0.27,0.4,0.34,0.61s0.12,0.4,0.14,0.58c0.02,0.19,0.03,0.34,0.03,0.47c0,0.21-0.04,0.39-0.13,0.53
		c-0.09,0.14-0.21,0.25-0.35,0.33c-0.15,0.08-0.31,0.14-0.5,0.17c-0.19,0.03-0.38,0.05-0.58,0.06c-0.17,0-0.33-0.03-0.47-0.09
		c-0.14-0.06-0.26-0.13-0.36-0.21c-0.1-0.09-0.18-0.18-0.23-0.29s-0.08-0.21-0.08-0.31c-0.01-0.27-0.12-0.48-0.33-0.62
		c-0.2-0.14-0.45-0.21-0.75-0.21c-0.12,0-0.24,0.01-0.35,0.04c-0.11,0.03-0.21,0.07-0.3,0.13c-0.09,0.06-0.16,0.14-0.21,0.24
		C126.69,76.62,126.67,76.75,126.67,76.91z"/>
	<path class="st1" d="M142.09,82.41c0,0.3-0.01,0.6-0.03,0.89s-0.09,0.55-0.19,0.78c-0.11,0.23-0.27,0.41-0.48,0.55
		s-0.52,0.21-0.9,0.21c-0.39,0-0.7-0.07-0.92-0.2c-0.22-0.13-0.39-0.29-0.49-0.48s-0.17-0.39-0.2-0.6
		c-0.03-0.21-0.04-0.38-0.04-0.53c-0.06,0.21-0.16,0.42-0.27,0.63s-0.27,0.41-0.46,0.58c-0.19,0.17-0.41,0.31-0.67,0.42
		c-0.26,0.11-0.57,0.17-0.92,0.17c-0.39,0-0.79-0.06-1.18-0.19c-0.39-0.13-0.75-0.34-1.06-0.64c-0.32-0.3-0.57-0.69-0.77-1.18
		c-0.2-0.48-0.3-1.08-0.3-1.79v-3.12c0-0.72,0.1-1.32,0.3-1.8c0.2-0.48,0.45-0.87,0.77-1.17c0.31-0.3,0.67-0.51,1.06-0.64
		c0.39-0.13,0.79-0.19,1.18-0.19c0.35,0,0.66,0.05,0.92,0.16c0.26,0.11,0.48,0.25,0.67,0.42c0.19,0.17,0.34,0.37,0.46,0.58
		s0.21,0.43,0.27,0.64c0-0.36,0.05-0.66,0.15-0.89c0.1-0.24,0.23-0.42,0.39-0.56c0.16-0.14,0.33-0.24,0.53-0.29
		c0.2-0.05,0.39-0.08,0.59-0.08c0.36,0,0.64,0.07,0.86,0.21s0.38,0.32,0.49,0.55c0.11,0.23,0.18,0.49,0.21,0.78s0.05,0.6,0.05,0.91
		V82.41z M136.5,80.75c0,0.19,0.01,0.38,0.02,0.57c0.01,0.19,0.05,0.35,0.12,0.5s0.16,0.27,0.28,0.36c0.12,0.09,0.3,0.13,0.52,0.13
		c0.28,0,0.51-0.06,0.68-0.19c0.18-0.12,0.31-0.32,0.41-0.58c0.1-0.26,0.17-0.59,0.21-0.99c0.04-0.4,0.06-0.87,0.07-1.42
		c0-0.22-0.02-0.48-0.06-0.77c-0.04-0.29-0.11-0.56-0.21-0.82c-0.1-0.26-0.24-0.48-0.42-0.66c-0.18-0.18-0.41-0.27-0.69-0.27
		c-0.22,0-0.4,0.04-0.52,0.13c-0.13,0.09-0.22,0.21-0.28,0.35c-0.06,0.14-0.1,0.31-0.12,0.49c-0.01,0.18-0.02,0.37-0.02,0.55V80.75z
		"/>
	<path class="st1" d="M151.52,75.7c0,0.56-0.14,0.97-0.41,1.22c-0.28,0.26-0.67,0.39-1.18,0.39c-0.07,0-0.17,0.01-0.31,0.02
		c-0.13,0.01-0.27,0.04-0.42,0.09s-0.3,0.11-0.46,0.2c-0.15,0.09-0.3,0.21-0.42,0.37s-0.23,0.35-0.31,0.58
		c-0.08,0.24-0.12,0.52-0.12,0.85v3.07c0,0.29-0.02,0.58-0.05,0.86s-0.11,0.53-0.22,0.75c-0.11,0.22-0.28,0.4-0.49,0.53
		c-0.21,0.14-0.5,0.2-0.87,0.2c-0.36,0-0.64-0.07-0.85-0.2c-0.21-0.14-0.37-0.31-0.48-0.53c-0.11-0.22-0.18-0.47-0.21-0.75
		s-0.05-0.57-0.05-0.86v-6.02c0-0.3,0.02-0.59,0.05-0.88s0.1-0.54,0.21-0.76c0.11-0.22,0.27-0.4,0.48-0.53
		c0.21-0.13,0.49-0.2,0.85-0.2c0.37,0,0.65,0.08,0.84,0.24c0.2,0.16,0.34,0.37,0.44,0.62c0.09,0.25,0.15,0.54,0.16,0.85
		c0.01,0.31,0.02,0.61,0.02,0.91h0.17c0.1-0.4,0.23-0.76,0.4-1.09c0.16-0.33,0.35-0.6,0.55-0.83c0.2-0.23,0.42-0.4,0.64-0.52
		c0.23-0.12,0.46-0.18,0.69-0.18c0.28,0,0.51,0.03,0.68,0.09c0.18,0.06,0.31,0.16,0.41,0.28c0.1,0.13,0.17,0.29,0.2,0.49
		C151.5,75.18,151.52,75.42,151.52,75.7z"/>
	<path class="st1" d="M160.03,75.7c0,0.56-0.14,0.97-0.41,1.22c-0.28,0.26-0.67,0.39-1.18,0.39c-0.07,0-0.17,0.01-0.31,0.02
		c-0.13,0.01-0.27,0.04-0.42,0.09s-0.3,0.11-0.46,0.2c-0.15,0.09-0.3,0.21-0.42,0.37s-0.23,0.35-0.31,0.58
		c-0.08,0.24-0.12,0.52-0.12,0.85v3.07c0,0.29-0.02,0.58-0.05,0.86s-0.11,0.53-0.22,0.75c-0.11,0.22-0.28,0.4-0.49,0.53
		c-0.21,0.14-0.5,0.2-0.87,0.2c-0.36,0-0.64-0.07-0.85-0.2c-0.21-0.14-0.37-0.31-0.48-0.53c-0.11-0.22-0.18-0.47-0.21-0.75
		s-0.05-0.57-0.05-0.86v-6.02c0-0.3,0.02-0.59,0.05-0.88s0.1-0.54,0.21-0.76c0.11-0.22,0.27-0.4,0.48-0.53
		c0.21-0.13,0.49-0.2,0.85-0.2c0.37,0,0.65,0.08,0.84,0.24c0.2,0.16,0.34,0.37,0.44,0.62c0.09,0.25,0.15,0.54,0.16,0.85
		c0.01,0.31,0.02,0.61,0.02,0.91h0.17c0.1-0.4,0.23-0.76,0.4-1.09c0.16-0.33,0.35-0.6,0.55-0.83c0.2-0.23,0.42-0.4,0.64-0.52
		c0.23-0.12,0.46-0.18,0.69-0.18c0.28,0,0.51,0.03,0.68,0.09c0.18,0.06,0.31,0.16,0.41,0.28c0.1,0.13,0.17,0.29,0.2,0.49
		C160.01,75.18,160.03,75.42,160.03,75.7z"/>
	<path class="st1" d="M161.1,78.13c0-0.66,0.09-1.22,0.27-1.68c0.18-0.46,0.41-0.84,0.69-1.15c0.28-0.31,0.6-0.55,0.95-0.72
		c0.35-0.17,0.69-0.3,1.03-0.39c0.34-0.09,0.65-0.14,0.94-0.16s0.52-0.03,0.68-0.03c0.16,0,0.39,0.01,0.68,0.03
		c0.29,0.02,0.59,0.08,0.92,0.16c0.33,0.09,0.66,0.21,0.99,0.39s0.63,0.41,0.9,0.72c0.27,0.31,0.49,0.69,0.66,1.15
		c0.17,0.46,0.26,1.02,0.26,1.68v2.66c0,0.66-0.09,1.22-0.26,1.68c-0.17,0.46-0.39,0.84-0.66,1.15c-0.27,0.31-0.57,0.55-0.9,0.72
		s-0.66,0.3-0.99,0.39c-0.33,0.09-0.63,0.14-0.92,0.16c-0.29,0.02-0.51,0.03-0.68,0.03c-0.17,0-0.39-0.01-0.68-0.03
		s-0.6-0.08-0.94-0.16c-0.34-0.09-0.68-0.21-1.03-0.39c-0.35-0.17-0.66-0.41-0.95-0.72c-0.28-0.31-0.51-0.69-0.69-1.15
		c-0.18-0.46-0.27-1.02-0.27-1.68V78.13z M164.41,81.55c0.01,0.21,0.06,0.39,0.15,0.55c0.08,0.14,0.2,0.27,0.37,0.38
		c0.17,0.11,0.41,0.17,0.73,0.17c0.3,0,0.53-0.05,0.69-0.17s0.28-0.24,0.36-0.38c0.09-0.16,0.14-0.34,0.15-0.55v-3.89
		c-0.01-0.21-0.06-0.41-0.15-0.59c-0.08-0.14-0.2-0.28-0.36-0.4s-0.39-0.19-0.69-0.19c-0.32,0-0.56,0.06-0.73,0.19
		c-0.17,0.12-0.29,0.26-0.37,0.4c-0.09,0.18-0.14,0.38-0.15,0.59V81.55z"/>
	<path class="st1" d="M172.41,72.18c0-0.3,0.02-0.59,0.05-0.88c0.03-0.29,0.11-0.54,0.22-0.76c0.11-0.22,0.28-0.4,0.49-0.54
		c0.21-0.14,0.5-0.2,0.87-0.2c0.37,0,0.67,0.07,0.88,0.2c0.21,0.14,0.38,0.32,0.49,0.54c0.11,0.22,0.18,0.48,0.21,0.76
		c0.03,0.29,0.05,0.58,0.05,0.88v10.25c0,0.3-0.02,0.6-0.05,0.89s-0.1,0.55-0.21,0.77c-0.11,0.23-0.27,0.41-0.49,0.54
		c-0.21,0.14-0.51,0.2-0.88,0.2c-0.37,0-0.66-0.07-0.87-0.2c-0.21-0.14-0.38-0.32-0.49-0.54c-0.11-0.23-0.19-0.48-0.22-0.77
		s-0.05-0.59-0.05-0.89V72.18z"/>
	<path class="st1" d="M178.7,72.18c0-0.3,0.02-0.59,0.05-0.88c0.03-0.29,0.11-0.54,0.22-0.76c0.11-0.22,0.28-0.4,0.49-0.54
		c0.21-0.14,0.5-0.2,0.87-0.2c0.37,0,0.67,0.07,0.88,0.2c0.21,0.14,0.38,0.32,0.49,0.54c0.11,0.22,0.18,0.48,0.21,0.76
		c0.03,0.29,0.05,0.58,0.05,0.88v10.25c0,0.3-0.02,0.6-0.05,0.89s-0.1,0.55-0.21,0.77c-0.11,0.23-0.27,0.41-0.49,0.54
		c-0.21,0.14-0.51,0.2-0.88,0.2c-0.37,0-0.66-0.07-0.87-0.2c-0.21-0.14-0.38-0.32-0.49-0.54c-0.11-0.23-0.19-0.48-0.22-0.77
		s-0.05-0.59-0.05-0.89V72.18z"/>
	<path class="st1" d="M193.29,82.41c0,0.3-0.01,0.6-0.03,0.89s-0.09,0.55-0.19,0.78c-0.11,0.23-0.27,0.41-0.48,0.55
		s-0.52,0.21-0.9,0.21c-0.39,0-0.7-0.07-0.92-0.2c-0.22-0.13-0.39-0.29-0.49-0.48s-0.17-0.39-0.2-0.6
		c-0.03-0.21-0.04-0.38-0.04-0.53c-0.06,0.21-0.16,0.42-0.27,0.63s-0.27,0.41-0.46,0.58c-0.19,0.17-0.41,0.31-0.67,0.42
		c-0.26,0.11-0.57,0.17-0.92,0.17c-0.39,0-0.79-0.06-1.18-0.19c-0.39-0.13-0.75-0.34-1.06-0.64c-0.32-0.3-0.57-0.69-0.77-1.18
		c-0.2-0.48-0.3-1.08-0.3-1.79v-3.12c0-0.72,0.1-1.32,0.3-1.8c0.2-0.48,0.45-0.87,0.77-1.17c0.31-0.3,0.67-0.51,1.06-0.64
		c0.39-0.13,0.79-0.19,1.18-0.19c0.35,0,0.66,0.05,0.92,0.16c0.26,0.11,0.48,0.25,0.67,0.42c0.19,0.17,0.34,0.37,0.46,0.58
		s0.21,0.43,0.27,0.64c0-0.36,0.05-0.66,0.15-0.89c0.1-0.24,0.23-0.42,0.39-0.56c0.16-0.14,0.33-0.24,0.53-0.29
		c0.2-0.05,0.39-0.08,0.59-0.08c0.36,0,0.64,0.07,0.86,0.21s0.38,0.32,0.49,0.55c0.11,0.23,0.18,0.49,0.21,0.78s0.05,0.6,0.05,0.91
		V82.41z M187.7,80.75c0,0.19,0.01,0.38,0.02,0.57c0.01,0.19,0.05,0.35,0.12,0.5s0.16,0.27,0.28,0.36c0.12,0.09,0.3,0.13,0.52,0.13
		c0.28,0,0.51-0.06,0.68-0.19c0.18-0.12,0.31-0.32,0.41-0.58c0.1-0.26,0.17-0.59,0.21-0.99c0.04-0.4,0.06-0.87,0.07-1.42
		c0-0.22-0.02-0.48-0.06-0.77c-0.04-0.29-0.11-0.56-0.21-0.82c-0.1-0.26-0.24-0.48-0.42-0.66c-0.18-0.18-0.41-0.27-0.69-0.27
		c-0.22,0-0.4,0.04-0.52,0.13c-0.13,0.09-0.22,0.21-0.28,0.35c-0.06,0.14-0.1,0.31-0.12,0.49c-0.01,0.18-0.02,0.37-0.02,0.55V80.75z
		"/>
	<path class="st1" d="M204.22,82.41c0,0.3-0.01,0.6-0.03,0.89s-0.09,0.55-0.19,0.78c-0.11,0.23-0.27,0.41-0.48,0.55
		s-0.52,0.21-0.9,0.21c-0.39,0-0.7-0.07-0.92-0.2s-0.39-0.29-0.49-0.48s-0.17-0.39-0.2-0.6c-0.03-0.21-0.04-0.38-0.04-0.53
		c-0.06,0.21-0.16,0.42-0.27,0.63s-0.27,0.41-0.46,0.58c-0.19,0.17-0.41,0.31-0.67,0.42c-0.26,0.11-0.57,0.17-0.92,0.17
		c-0.39,0-0.79-0.06-1.18-0.19c-0.39-0.13-0.75-0.34-1.06-0.64c-0.32-0.3-0.57-0.69-0.77-1.18c-0.2-0.48-0.3-1.08-0.3-1.79v-3.12
		c0-0.72,0.1-1.32,0.3-1.8c0.2-0.48,0.45-0.87,0.77-1.17c0.31-0.3,0.67-0.51,1.06-0.64c0.39-0.13,0.79-0.19,1.18-0.19
		c0.35,0,0.66,0.05,0.92,0.16c0.26,0.11,0.48,0.25,0.67,0.42c0.19,0.17,0.34,0.37,0.46,0.58s0.21,0.43,0.27,0.64v-3.67
		c0-0.31,0.02-0.61,0.05-0.91c0.03-0.3,0.1-0.56,0.21-0.78c0.11-0.23,0.28-0.41,0.49-0.55c0.22-0.14,0.52-0.21,0.9-0.21
		c0.36,0,0.64,0.07,0.86,0.21s0.38,0.32,0.49,0.55c0.11,0.23,0.18,0.49,0.21,0.78s0.05,0.6,0.05,0.91V82.41z M198.64,80.75
		c0,0.19,0.01,0.38,0.02,0.57c0.01,0.19,0.05,0.35,0.12,0.5s0.16,0.27,0.28,0.36c0.12,0.09,0.3,0.13,0.52,0.13
		c0.28,0,0.51-0.06,0.68-0.19c0.18-0.12,0.31-0.32,0.41-0.58c0.1-0.26,0.17-0.59,0.21-0.99c0.04-0.4,0.06-0.87,0.07-1.42
		c0-0.22-0.02-0.48-0.06-0.77c-0.04-0.29-0.11-0.56-0.21-0.82c-0.1-0.26-0.24-0.48-0.42-0.66c-0.18-0.18-0.41-0.27-0.69-0.27
		c-0.22,0-0.4,0.04-0.52,0.13c-0.13,0.09-0.22,0.21-0.28,0.35c-0.06,0.14-0.1,0.31-0.12,0.49c-0.01,0.18-0.02,0.37-0.02,0.55V80.75z
		"/>
	<path class="st1" d="M206.24,78.13c0-0.66,0.09-1.22,0.27-1.68c0.18-0.46,0.41-0.84,0.69-1.15c0.28-0.31,0.6-0.55,0.95-0.72
		c0.35-0.17,0.69-0.3,1.03-0.39s0.65-0.14,0.94-0.16S210.63,74,210.8,74s0.39,0.01,0.68,0.03s0.59,0.08,0.92,0.16
		c0.33,0.09,0.66,0.21,0.99,0.39s0.63,0.41,0.9,0.72c0.27,0.31,0.49,0.69,0.66,1.15c0.17,0.46,0.26,1.02,0.26,1.68v2.66
		c0,0.66-0.09,1.22-0.26,1.68c-0.17,0.46-0.39,0.84-0.66,1.15c-0.27,0.31-0.57,0.55-0.9,0.72s-0.66,0.3-0.99,0.39
		c-0.33,0.09-0.63,0.14-0.92,0.16s-0.51,0.03-0.68,0.03s-0.39-0.01-0.68-0.03s-0.6-0.08-0.94-0.16s-0.68-0.21-1.03-0.39
		c-0.35-0.17-0.66-0.41-0.95-0.72c-0.28-0.31-0.51-0.69-0.69-1.15c-0.18-0.46-0.27-1.02-0.27-1.68V78.13z M209.55,81.55
		c0.01,0.21,0.06,0.39,0.15,0.55c0.08,0.14,0.2,0.27,0.37,0.38c0.17,0.11,0.41,0.17,0.72,0.17c0.3,0,0.53-0.05,0.69-0.17
		s0.28-0.24,0.36-0.38c0.09-0.16,0.14-0.34,0.15-0.55v-3.89c-0.01-0.21-0.06-0.41-0.15-0.59c-0.08-0.14-0.2-0.28-0.36-0.4
		s-0.39-0.19-0.69-0.19c-0.32,0-0.56,0.06-0.72,0.19c-0.17,0.12-0.29,0.26-0.37,0.4c-0.09,0.18-0.14,0.38-0.15,0.59V81.55z"/>
	<path class="st1" d="M224.31,75.7c0,0.56-0.14,0.97-0.41,1.22c-0.28,0.26-0.67,0.39-1.18,0.39c-0.07,0-0.17,0.01-0.31,0.02
		c-0.13,0.01-0.27,0.04-0.42,0.09s-0.3,0.11-0.46,0.2c-0.15,0.09-0.29,0.21-0.42,0.37s-0.23,0.35-0.31,0.58s-0.12,0.52-0.12,0.85
		v3.07c0,0.29-0.02,0.58-0.05,0.86c-0.03,0.28-0.11,0.53-0.22,0.75s-0.28,0.4-0.49,0.53c-0.21,0.14-0.5,0.2-0.87,0.2
		c-0.36,0-0.64-0.07-0.85-0.2c-0.21-0.14-0.37-0.31-0.48-0.53c-0.11-0.22-0.18-0.47-0.21-0.75c-0.03-0.28-0.05-0.57-0.05-0.86v-6.02
		c0-0.3,0.02-0.59,0.05-0.88c0.03-0.28,0.1-0.54,0.21-0.76c0.11-0.22,0.27-0.4,0.48-0.53s0.49-0.2,0.85-0.2
		c0.37,0,0.65,0.08,0.84,0.24c0.2,0.16,0.34,0.37,0.43,0.62s0.15,0.54,0.16,0.85s0.02,0.61,0.02,0.91h0.17
		c0.1-0.4,0.23-0.76,0.4-1.09s0.35-0.6,0.55-0.83s0.42-0.4,0.64-0.52c0.23-0.12,0.46-0.18,0.69-0.18c0.28,0,0.51,0.03,0.68,0.09
		c0.18,0.06,0.31,0.16,0.41,0.28s0.17,0.29,0.2,0.49C224.29,75.18,224.31,75.42,224.31,75.7z"/>
	<path class="st1" d="M242.17,69.86c0.2,0,0.39,0.04,0.56,0.11c0.17,0.07,0.33,0.17,0.47,0.3c0.14,0.12,0.26,0.28,0.36,0.45
		s0.17,0.36,0.21,0.56l1.85,8.57h0.37c0.3-1.4,0.61-2.82,0.92-4.28s0.63-2.89,0.95-4.29c0.06-0.27,0.16-0.52,0.29-0.74
		c0.11-0.19,0.27-0.36,0.48-0.51c0.21-0.15,0.47-0.23,0.8-0.23c0.25,0,0.47,0.04,0.66,0.13c0.19,0.09,0.35,0.2,0.47,0.34
		c0.13,0.14,0.22,0.29,0.28,0.46c0.06,0.17,0.09,0.33,0.09,0.48c0,0.09,0,0.17-0.01,0.25c-0.01,0.08-0.02,0.15-0.03,0.2
		c-0.01,0.07-0.03,0.14-0.04,0.19l-2.94,11.69c-0.11,0.24-0.25,0.46-0.43,0.64c-0.15,0.17-0.35,0.31-0.59,0.45
		c-0.24,0.13-0.54,0.2-0.9,0.2h-0.37c-0.36,0-0.65-0.07-0.88-0.2s-0.41-0.28-0.55-0.45c-0.16-0.19-0.28-0.4-0.35-0.64l-1.5-6.29
		h-0.37c-0.23,1.02-0.47,2.07-0.74,3.15c-0.26,1.08-0.51,2.13-0.75,3.15c-0.09,0.24-0.22,0.46-0.38,0.64
		c-0.14,0.17-0.33,0.31-0.55,0.45c-0.22,0.13-0.52,0.2-0.88,0.2h-0.37c-0.36,0-0.66-0.07-0.91-0.2c-0.25-0.13-0.45-0.28-0.61-0.45
		c-0.19-0.19-0.33-0.4-0.44-0.64l-2.9-11.69c-0.01-0.06-0.03-0.12-0.04-0.19c-0.01-0.06-0.03-0.12-0.03-0.2
		c-0.01-0.08-0.01-0.16-0.01-0.25c0-0.16,0.03-0.32,0.09-0.48c0.06-0.16,0.15-0.32,0.28-0.46c0.12-0.14,0.28-0.25,0.47-0.34
		c0.19-0.09,0.41-0.13,0.66-0.13c0.33,0,0.6,0.08,0.8,0.23c0.2,0.15,0.36,0.32,0.48,0.51c0.13,0.22,0.23,0.47,0.29,0.74l1.87,8.57
		h0.37c0.14-0.66,0.28-1.35,0.44-2.08s0.32-1.46,0.48-2.2c0.16-0.74,0.32-1.48,0.48-2.2c0.16-0.73,0.32-1.42,0.47-2.09
		c0.1-0.41,0.29-0.75,0.58-1.01S241.76,69.86,242.17,69.86z"/>
	<path class="st1" d="M261.07,78.71c0,0.12-0.01,0.25-0.02,0.4s-0.07,0.3-0.17,0.44c-0.1,0.14-0.25,0.26-0.46,0.36
		c-0.21,0.1-0.5,0.15-0.88,0.15h-4.28v1.03c0,0.17,0.02,0.35,0.06,0.54c0.04,0.19,0.12,0.36,0.22,0.52c0.1,0.16,0.24,0.29,0.41,0.39
		c0.17,0.1,0.38,0.15,0.63,0.15c0.29,0,0.51-0.03,0.66-0.1c0.15-0.07,0.28-0.15,0.37-0.25c0.09-0.1,0.17-0.21,0.24-0.32
		c0.07-0.11,0.17-0.22,0.29-0.32c0.12-0.1,0.28-0.18,0.49-0.25c0.21-0.07,0.5-0.1,0.88-0.1c0.18,0,0.35,0.01,0.52,0.04
		c0.17,0.03,0.32,0.08,0.45,0.16c0.13,0.08,0.23,0.19,0.31,0.33s0.12,0.32,0.12,0.54c0,0.47-0.15,0.85-0.44,1.17
		s-0.66,0.56-1.11,0.75c-0.44,0.19-0.93,0.32-1.45,0.4c-0.52,0.08-1,0.12-1.46,0.12c-0.59-0.01-1.16-0.08-1.7-0.23
		c-0.54-0.14-1.01-0.37-1.42-0.69c-0.41-0.31-0.74-0.73-0.98-1.24c-0.24-0.51-0.37-1.13-0.37-1.87V78.3c0-0.68,0.08-1.26,0.24-1.73
		c0.16-0.47,0.37-0.87,0.63-1.18c0.26-0.31,0.55-0.56,0.87-0.74s0.65-0.31,0.98-0.39s0.64-0.14,0.94-0.16
		c0.3-0.02,0.55-0.03,0.77-0.03c0.72,0,1.34,0.06,1.85,0.19c0.51,0.13,0.94,0.3,1.28,0.5c0.34,0.21,0.62,0.45,0.82,0.72
		c0.2,0.27,0.35,0.55,0.45,0.84s0.17,0.58,0.19,0.88s0.04,0.57,0.04,0.83V78.71z M255.27,78.45h2.69c0-0.34-0.01-0.63-0.03-0.9
		c-0.02-0.26-0.07-0.48-0.16-0.66c-0.09-0.18-0.23-0.31-0.42-0.41c-0.19-0.09-0.46-0.14-0.81-0.14c-0.29,0-0.52,0.05-0.69,0.14
		c-0.17,0.09-0.29,0.21-0.38,0.35s-0.14,0.29-0.16,0.45c-0.02,0.16-0.03,0.3-0.03,0.42V78.45z"/>
	<path class="st1" d="M263.26,72.24c0-0.31,0.02-0.61,0.05-0.91c0.03-0.3,0.1-0.56,0.21-0.78c0.11-0.23,0.27-0.41,0.49-0.55
		s0.5-0.21,0.86-0.21c0.37,0,0.67,0.07,0.89,0.21s0.39,0.32,0.5,0.55c0.11,0.23,0.18,0.49,0.21,0.78c0.03,0.3,0.05,0.6,0.05,0.91
		v3.67c0.06-0.21,0.16-0.43,0.27-0.64c0.12-0.21,0.27-0.41,0.46-0.58s0.41-0.31,0.67-0.42c0.26-0.11,0.57-0.16,0.92-0.16
		c0.39,0,0.79,0.06,1.18,0.19s0.75,0.34,1.06,0.64s0.57,0.69,0.77,1.17c0.2,0.48,0.29,1.08,0.29,1.8v3.12c0,0.71-0.1,1.31-0.29,1.79
		c-0.2,0.48-0.45,0.88-0.77,1.18s-0.67,0.52-1.06,0.64s-0.79,0.19-1.18,0.19c-0.35,0-0.66-0.05-0.92-0.17
		c-0.26-0.11-0.49-0.25-0.67-0.42s-0.34-0.37-0.46-0.58c-0.12-0.21-0.21-0.43-0.27-0.63c0,0.14-0.01,0.32-0.04,0.53
		c-0.03,0.21-0.09,0.41-0.2,0.6s-0.27,0.35-0.49,0.48s-0.53,0.2-0.92,0.2c-0.39,0-0.69-0.07-0.9-0.21s-0.38-0.32-0.48-0.55
		c-0.11-0.23-0.17-0.49-0.19-0.78s-0.03-0.59-0.03-0.89V72.24z M268.85,78.15c0-0.19-0.01-0.37-0.02-0.55s-0.05-0.35-0.12-0.49
		c-0.06-0.14-0.16-0.26-0.28-0.35c-0.13-0.09-0.3-0.13-0.52-0.13c-0.28,0-0.51,0.09-0.69,0.27c-0.18,0.18-0.32,0.4-0.42,0.66
		s-0.17,0.53-0.21,0.82c-0.04,0.29-0.06,0.55-0.06,0.77c0.01,0.55,0.03,1.03,0.07,1.42c0.04,0.4,0.11,0.73,0.21,0.99
		s0.24,0.46,0.41,0.58c0.17,0.12,0.4,0.19,0.68,0.19c0.22,0,0.4-0.04,0.52-0.13c0.12-0.09,0.22-0.21,0.28-0.36s0.1-0.32,0.12-0.5
		c0.01-0.19,0.02-0.38,0.02-0.57V78.15z"/>
	<path class="st1" d="M289.07,69.79c0.29,0,0.58,0.01,0.87,0.04c0.29,0.03,0.56,0.1,0.79,0.2s0.43,0.27,0.58,0.48
		s0.23,0.5,0.23,0.86s-0.08,0.65-0.23,0.87s-0.34,0.37-0.58,0.48s-0.5,0.18-0.79,0.2c-0.29,0.03-0.58,0.04-0.87,0.04h-2.56v2.79
		h1.35c0.28,0,0.57,0.01,0.86,0.03s0.56,0.08,0.79,0.18c0.24,0.1,0.43,0.26,0.59,0.47c0.15,0.21,0.23,0.52,0.23,0.9
		s-0.08,0.69-0.23,0.9s-0.34,0.37-0.58,0.47c-0.24,0.1-0.5,0.16-0.79,0.18s-0.58,0.03-0.87,0.03h-1.35v3.42
		c0,0.32-0.01,0.62-0.03,0.91c-0.02,0.29-0.08,0.56-0.18,0.79c-0.1,0.23-0.27,0.42-0.49,0.56s-0.53,0.21-0.93,0.21
		c-0.41,0-0.72-0.07-0.95-0.21s-0.38-0.33-0.48-0.56s-0.16-0.5-0.18-0.79c-0.02-0.29-0.03-0.6-0.03-0.91v-10.1
		c0-0.31,0.01-0.61,0.03-0.9c0.02-0.29,0.08-0.56,0.18-0.79s0.26-0.42,0.48-0.56c0.22-0.14,0.54-0.21,0.95-0.21H289.07z"/>
	<path class="st1" d="M300.09,75.7c0,0.56-0.14,0.97-0.41,1.22c-0.28,0.26-0.67,0.39-1.18,0.39c-0.07,0-0.17,0.01-0.31,0.02
		c-0.13,0.01-0.27,0.04-0.42,0.09s-0.3,0.11-0.46,0.2c-0.15,0.09-0.29,0.21-0.42,0.37s-0.23,0.35-0.31,0.58s-0.12,0.52-0.12,0.85
		v3.07c0,0.29-0.02,0.58-0.05,0.86c-0.03,0.28-0.11,0.53-0.22,0.75s-0.28,0.4-0.49,0.53c-0.21,0.14-0.5,0.2-0.87,0.2
		c-0.36,0-0.64-0.07-0.85-0.2c-0.21-0.14-0.37-0.31-0.48-0.53c-0.11-0.22-0.18-0.47-0.21-0.75c-0.03-0.28-0.05-0.57-0.05-0.86v-6.02
		c0-0.3,0.02-0.59,0.05-0.88c0.03-0.28,0.1-0.54,0.21-0.76c0.11-0.22,0.27-0.4,0.48-0.53s0.49-0.2,0.85-0.2
		c0.37,0,0.65,0.08,0.84,0.24c0.2,0.16,0.34,0.37,0.43,0.62s0.15,0.54,0.16,0.85s0.02,0.61,0.02,0.91h0.17
		c0.1-0.4,0.23-0.76,0.4-1.09s0.35-0.6,0.55-0.83s0.42-0.4,0.64-0.52c0.23-0.12,0.46-0.18,0.69-0.18c0.28,0,0.51,0.03,0.68,0.09
		c0.18,0.06,0.31,0.16,0.41,0.28s0.17,0.29,0.2,0.49C300.07,75.18,300.09,75.42,300.09,75.7z"/>
	<path class="st1" d="M301.16,78.13c0-0.66,0.09-1.22,0.27-1.68c0.18-0.46,0.41-0.84,0.69-1.15c0.28-0.31,0.6-0.55,0.95-0.72
		c0.35-0.17,0.69-0.3,1.03-0.39s0.65-0.14,0.94-0.16c0.29-0.02,0.52-0.03,0.68-0.03s0.39,0.01,0.68,0.03s0.59,0.08,0.92,0.16
		c0.33,0.09,0.65,0.21,0.99,0.39c0.33,0.17,0.63,0.41,0.9,0.72c0.27,0.31,0.49,0.69,0.66,1.15c0.17,0.46,0.26,1.02,0.26,1.68v2.66
		c0,0.66-0.09,1.22-0.26,1.68c-0.17,0.46-0.39,0.84-0.66,1.15c-0.27,0.31-0.57,0.55-0.9,0.72c-0.33,0.17-0.66,0.3-0.99,0.39
		c-0.33,0.09-0.63,0.14-0.92,0.16s-0.51,0.03-0.68,0.03s-0.39-0.01-0.68-0.03c-0.29-0.02-0.6-0.08-0.94-0.16s-0.68-0.21-1.03-0.39
		c-0.35-0.17-0.66-0.41-0.95-0.72c-0.28-0.31-0.51-0.69-0.69-1.15c-0.18-0.46-0.27-1.02-0.27-1.68V78.13z M304.47,81.55
		c0.01,0.21,0.06,0.39,0.15,0.55c0.08,0.14,0.2,0.27,0.37,0.38c0.17,0.11,0.41,0.17,0.72,0.17c0.3,0,0.53-0.05,0.69-0.17
		c0.16-0.11,0.28-0.24,0.36-0.38c0.09-0.16,0.14-0.34,0.15-0.55v-3.89c-0.01-0.21-0.06-0.41-0.15-0.59c-0.08-0.14-0.2-0.28-0.36-0.4
		c-0.16-0.12-0.39-0.19-0.69-0.19c-0.32,0-0.56,0.06-0.72,0.19c-0.17,0.12-0.29,0.26-0.37,0.4c-0.09,0.18-0.14,0.38-0.15,0.59V81.55
		z"/>
	<path class="st1" d="M321.33,82.38c0,0.31-0.02,0.61-0.05,0.9c-0.04,0.29-0.11,0.56-0.23,0.78c-0.12,0.23-0.29,0.41-0.5,0.55
		c-0.22,0.14-0.51,0.21-0.89,0.21c-0.37,0-0.66-0.07-0.87-0.21s-0.38-0.32-0.49-0.55c-0.11-0.23-0.19-0.49-0.22-0.78
		c-0.03-0.29-0.05-0.59-0.05-0.9v-4.19c0-0.2-0.01-0.4-0.03-0.59c-0.02-0.19-0.06-0.36-0.12-0.51s-0.16-0.26-0.29-0.35
		c-0.12-0.09-0.29-0.13-0.51-0.13c-0.29,0-0.53,0.1-0.71,0.29s-0.32,0.46-0.42,0.79c-0.1,0.34-0.17,0.73-0.21,1.19
		s-0.05,0.94-0.05,1.47v2.04c0,0.31-0.02,0.61-0.05,0.9c-0.04,0.29-0.11,0.56-0.23,0.78c-0.12,0.23-0.29,0.41-0.5,0.55
		c-0.22,0.14-0.51,0.21-0.89,0.21c-0.37,0-0.66-0.07-0.87-0.21s-0.38-0.32-0.49-0.55c-0.11-0.23-0.19-0.49-0.22-0.78
		c-0.03-0.29-0.05-0.59-0.05-0.9v-5.87c0-0.31,0.01-0.61,0.03-0.9s0.09-0.55,0.19-0.77s0.27-0.41,0.49-0.55
		c0.22-0.14,0.52-0.21,0.92-0.21s0.7,0.07,0.92,0.2s0.39,0.29,0.5,0.48c0.11,0.19,0.18,0.38,0.21,0.59
		c0.03,0.21,0.04,0.39,0.04,0.54c0.06-0.21,0.15-0.42,0.27-0.63s0.28-0.41,0.47-0.58c0.19-0.17,0.42-0.31,0.68-0.42
		s0.57-0.17,0.92-0.17c0.39,0,0.79,0.06,1.18,0.19s0.75,0.34,1.06,0.64s0.57,0.7,0.77,1.18c0.2,0.49,0.29,1.09,0.29,1.8V82.38z"/>
	<path class="st1" d="M325.35,74.09V72.2c0-0.3,0.02-0.59,0.05-0.88c0.03-0.29,0.11-0.54,0.22-0.77s0.28-0.41,0.49-0.55
		s0.5-0.21,0.87-0.21c0.36,0,0.64,0.07,0.86,0.21s0.38,0.32,0.49,0.55c0.11,0.23,0.18,0.48,0.21,0.77c0.03,0.29,0.05,0.58,0.05,0.88
		v1.89h0.88c0.19,0,0.37,0.01,0.56,0.03s0.35,0.07,0.5,0.16c0.15,0.09,0.26,0.21,0.35,0.39c0.09,0.17,0.13,0.41,0.13,0.72
		c0,0.29-0.04,0.53-0.13,0.7c-0.09,0.17-0.21,0.3-0.35,0.39c-0.15,0.09-0.31,0.14-0.5,0.17s-0.37,0.04-0.56,0.04h-0.88v3.76
		c0,0.14,0.01,0.3,0.02,0.46c0.01,0.16,0.05,0.31,0.11,0.45c0.06,0.14,0.16,0.25,0.29,0.34s0.31,0.13,0.55,0.13
		c0.26,0,0.48,0.02,0.66,0.06c0.18,0.04,0.33,0.11,0.45,0.21c0.12,0.1,0.21,0.24,0.26,0.42c0.06,0.18,0.09,0.41,0.09,0.69
		c0,0.29-0.07,0.53-0.2,0.74c-0.13,0.21-0.31,0.38-0.53,0.52c-0.22,0.14-0.48,0.24-0.77,0.3s-0.6,0.1-0.92,0.1
		c-0.51,0-0.94-0.05-1.3-0.16c-0.36-0.11-0.66-0.26-0.9-0.46c-0.24-0.2-0.43-0.43-0.57-0.71c-0.14-0.28-0.24-0.59-0.31-0.93
		c-0.07-0.34-0.11-0.71-0.13-1.11c-0.02-0.4-0.03-0.81-0.03-1.25v-3.54h-0.6c-0.19,0-0.37-0.01-0.55-0.04
		c-0.18-0.03-0.35-0.08-0.49-0.17s-0.26-0.21-0.35-0.39c-0.09-0.17-0.13-0.4-0.13-0.7c0-0.31,0.04-0.55,0.13-0.72
		c0.09-0.17,0.21-0.3,0.35-0.39s0.31-0.14,0.49-0.16c0.18-0.02,0.37-0.03,0.55-0.03H325.35z"/>
	<path class="st1" d="M334.63,79.68c-0.2,0-0.39-0.01-0.58-0.04s-0.35-0.08-0.49-0.17s-0.26-0.22-0.34-0.39s-0.13-0.4-0.13-0.69
		c0-0.31,0.04-0.56,0.13-0.74c0.09-0.18,0.2-0.31,0.34-0.4s0.31-0.14,0.49-0.16s0.38-0.03,0.58-0.03h4.75
		c0.18,0,0.36,0.01,0.55,0.03s0.35,0.08,0.5,0.16c0.15,0.09,0.27,0.22,0.36,0.4c0.09,0.18,0.14,0.43,0.14,0.74
		c0,0.29-0.05,0.53-0.14,0.69s-0.21,0.3-0.36,0.39c-0.15,0.09-0.31,0.15-0.5,0.17s-0.37,0.04-0.55,0.04h-4.15H334.63z"/>
	<path class="st1" d="M349.63,69.79c0.29,0,0.58,0.01,0.87,0.03s0.56,0.08,0.79,0.18c0.24,0.1,0.43,0.25,0.58,0.46
		s0.23,0.49,0.23,0.85s-0.08,0.65-0.23,0.85s-0.34,0.36-0.58,0.46c-0.24,0.1-0.5,0.16-0.79,0.18s-0.58,0.03-0.87,0.03h-2.56v2.92
		h1.35c0.29,0,0.57,0.01,0.87,0.03c0.29,0.02,0.55,0.08,0.77,0.17c0.22,0.1,0.41,0.24,0.55,0.44s0.21,0.47,0.21,0.82
		c0,0.36-0.07,0.63-0.21,0.83s-0.33,0.34-0.55,0.44c-0.23,0.1-0.48,0.15-0.77,0.17c-0.29,0.02-0.58,0.03-0.87,0.03h-1.35v3.09h2.56
		c0.29,0,0.58,0.01,0.87,0.03s0.56,0.08,0.79,0.18s0.43,0.25,0.58,0.45s0.23,0.49,0.23,0.84c0,0.37-0.08,0.66-0.23,0.87
		c-0.15,0.21-0.35,0.36-0.59,0.46c-0.24,0.1-0.5,0.16-0.79,0.18s-0.58,0.03-0.86,0.03h-4.21c-0.4,0-0.71-0.07-0.93-0.21
		c-0.22-0.14-0.38-0.33-0.48-0.56s-0.16-0.5-0.18-0.79c-0.02-0.29-0.03-0.59-0.03-0.9v-10.1c0-0.31,0.01-0.61,0.03-0.9
		c0.02-0.29,0.08-0.56,0.18-0.79s0.26-0.42,0.48-0.56c0.22-0.14,0.53-0.21,0.93-0.21H349.63z"/>
	<path class="st1" d="M363.27,82.38c0,0.31-0.02,0.61-0.05,0.9c-0.04,0.29-0.11,0.56-0.23,0.78c-0.12,0.23-0.29,0.41-0.5,0.55
		c-0.22,0.14-0.51,0.21-0.89,0.21c-0.37,0-0.66-0.07-0.87-0.21s-0.38-0.32-0.49-0.55c-0.11-0.23-0.19-0.49-0.22-0.78
		c-0.03-0.29-0.05-0.59-0.05-0.9v-4.19c0-0.2-0.01-0.4-0.03-0.59c-0.02-0.19-0.06-0.36-0.12-0.51s-0.16-0.26-0.29-0.35
		c-0.12-0.09-0.29-0.13-0.51-0.13c-0.29,0-0.53,0.1-0.71,0.29s-0.32,0.46-0.42,0.79c-0.1,0.34-0.17,0.73-0.21,1.19
		s-0.05,0.94-0.05,1.47v2.04c0,0.31-0.02,0.61-0.05,0.9c-0.04,0.29-0.11,0.56-0.23,0.78c-0.12,0.23-0.29,0.41-0.5,0.55
		c-0.22,0.14-0.51,0.21-0.89,0.21c-0.37,0-0.66-0.07-0.87-0.21s-0.38-0.32-0.49-0.55c-0.11-0.23-0.19-0.49-0.22-0.78
		c-0.03-0.29-0.05-0.59-0.05-0.9v-5.87c0-0.31,0.01-0.61,0.03-0.9s0.09-0.55,0.19-0.77s0.27-0.41,0.49-0.55
		c0.22-0.14,0.52-0.21,0.92-0.21s0.7,0.07,0.92,0.2s0.39,0.29,0.5,0.48c0.11,0.19,0.18,0.38,0.21,0.59
		c0.03,0.21,0.04,0.39,0.04,0.54c0.06-0.21,0.15-0.42,0.27-0.63s0.28-0.41,0.47-0.58c0.19-0.17,0.42-0.31,0.68-0.42
		s0.57-0.17,0.92-0.17c0.39,0,0.79,0.06,1.18,0.19s0.75,0.34,1.06,0.64s0.57,0.7,0.77,1.18c0.2,0.49,0.29,1.09,0.29,1.8V82.38z"/>
	<path class="st1" d="M374.29,82.41c0,0.3-0.01,0.6-0.03,0.89s-0.09,0.55-0.19,0.78c-0.11,0.23-0.27,0.41-0.48,0.55
		s-0.52,0.21-0.9,0.21c-0.39,0-0.7-0.07-0.92-0.2s-0.39-0.29-0.49-0.48s-0.17-0.39-0.2-0.6c-0.02-0.21-0.04-0.38-0.04-0.53
		c-0.06,0.21-0.16,0.42-0.27,0.63c-0.12,0.21-0.27,0.41-0.46,0.58s-0.41,0.31-0.67,0.42c-0.26,0.11-0.57,0.17-0.92,0.17
		c-0.39,0-0.79-0.06-1.18-0.19s-0.75-0.34-1.06-0.64s-0.57-0.69-0.77-1.18c-0.2-0.48-0.29-1.08-0.29-1.79v-3.12
		c0-0.72,0.1-1.32,0.29-1.8c0.2-0.48,0.45-0.87,0.77-1.17s0.67-0.51,1.06-0.64s0.79-0.19,1.18-0.19c0.35,0,0.66,0.05,0.92,0.16
		c0.26,0.11,0.49,0.25,0.67,0.42s0.34,0.37,0.46,0.58c0.12,0.21,0.21,0.43,0.27,0.64v-3.67c0-0.31,0.02-0.61,0.05-0.91
		c0.03-0.3,0.1-0.56,0.21-0.78c0.11-0.23,0.28-0.41,0.49-0.55c0.22-0.14,0.52-0.21,0.9-0.21c0.36,0,0.64,0.07,0.86,0.21
		s0.38,0.32,0.49,0.55c0.11,0.23,0.18,0.49,0.21,0.78c0.03,0.3,0.05,0.6,0.05,0.91V82.41z M368.71,80.75c0,0.19,0.01,0.38,0.02,0.57
		c0.01,0.19,0.05,0.35,0.12,0.5s0.16,0.27,0.28,0.36c0.13,0.09,0.3,0.13,0.52,0.13c0.28,0,0.51-0.06,0.68-0.19
		c0.18-0.12,0.31-0.32,0.41-0.58s0.17-0.59,0.21-0.99c0.04-0.4,0.06-0.87,0.07-1.42c0-0.22-0.02-0.48-0.06-0.77
		c-0.04-0.29-0.11-0.56-0.21-0.82s-0.24-0.48-0.42-0.66c-0.18-0.18-0.41-0.27-0.69-0.27c-0.22,0-0.4,0.04-0.52,0.13
		c-0.12,0.09-0.22,0.21-0.28,0.35c-0.06,0.14-0.1,0.31-0.12,0.49s-0.02,0.37-0.02,0.55V80.75z"/>
</g>
</svg>
