<?xml version="1.0" encoding="utf-8"?>
<!-- Generator: Adobe Illustrator 25.3.0, SVG Export Plug-In . SVG Version: 6.00 Build 0)  -->
<svg version="1.1" id="bold" xmlns="http://www.w3.org/2000/svg" xmlns:xlink="http://www.w3.org/1999/xlink" x="0px" y="0px"
	 viewBox="0 0 512 512" style="enable-background:new 0 0 512 512;" xml:space="preserve">
<style type="text/css">
	.st0{fill:#EEEDED;}
	.st1{fill:#334756;}
	.st2{fill:#61DAFB;}
</style>
<g>
	<path class="st0" d="M52.5,123.5c-7.1,4.1-13,14.2-13,22.5v220c0,8.2,5.8,18.4,13,22.5l190.5,110c7.1,4.1,18.8,4.1,26,0l190.5-110
		c7.1-4.1,13-14.2,13-22.5V146c0-8.2-5.8-18.4-13-22.5L269,13.5c-7.1-4.1-18.8-4.1-26,0L52.5,123.5z"/>
</g>
<g>
	<path class="st1" d="M431,256c0,5.4-0.2,10.8-0.7,16c-0.4,4.2-0.9,8.3-1.6,12.4C415.1,367.6,343,431,256,431
		c-44.3,0-84.7-16.5-115.6-43.6c-11.4-10-21.5-21.5-29.9-34.2C91.9,325.4,81,292,81,256c0-96.6,78.4-175,175-175S431,159.4,431,256z
		"/>
	<g>
		<path class="st2" d="M342.8,213.9L342.8,213.9c-2.8-1-5.7-1.9-8.7-2.7c0.5-2,0.9-3.9,1.4-5.9c6.5-31.8,2.3-57.4-12.4-65.9
			c-14.1-8.1-37,0.3-60.2,20.5c-2.3,2-4.5,4-6.8,6.1c-1.5-1.4-2.9-2.8-4.5-4.1c-24.3-21.6-48.7-30.6-63.4-22.2
			c-14.1,8.1-18.2,32.2-12.3,62.4c0.6,3,1.2,6,2,8.9c-3.5,1-6.8,2-10,3.1c-28.5,9.9-46.7,25.5-46.7,41.6c0,16.7,19.6,33.4,49.3,43.5
			c2.4,0.8,4.8,1.6,7.3,2.3c-0.8,3.2-1.5,6.4-2.1,9.6c-5.6,29.6-1.2,53.1,12.7,61.2c14.4,8.3,38.7-0.2,62.3-20.9
			c1.9-1.6,3.7-3.4,5.6-5.2c2.4,2.3,4.8,4.5,7.3,6.6c22.8,19.7,45.5,27.6,59.4,19.5c14.4-8.3,19.1-33.6,13.1-64.4
			c-0.5-2.3-1-4.7-1.6-7.2c1.7-0.5,3.4-1,5-1.6c30.8-10.2,51-26.7,51-43.6C390.6,239.6,371.8,223.9,342.8,213.9z M270.4,168.6
			c19.9-17.3,38.5-24.1,46.9-19.2l0,0c9,5.2,12.5,26.1,6.9,53.6c-0.3,1.8-0.8,3.6-1.2,5.3c-11.8-2.7-23.9-4.6-36-5.7
			c-7-10-14.5-19.4-22.7-28.4C266.2,172.3,268.3,170.4,270.4,168.6z M200.9,269.6c2.5,4.7,5,9.3,7.7,13.9c2.7,4.7,5.5,9.3,8.4,13.8
			c-8.3-0.9-16.7-2.2-24.8-4C194.6,285.6,197.5,277.7,200.9,269.6z M200.9,242.5c-3.4-7.9-6.2-15.7-8.6-23.3
			c7.7-1.7,15.9-3.1,24.4-4.2c-2.8,4.5-5.6,9-8.2,13.5C205.8,233.2,203.3,237.8,200.9,242.5z M206.9,256c3.5-7.4,7.3-14.6,11.5-21.7
			l0,0c4.1-7.1,8.4-14,13.1-20.8c8-0.6,16.2-0.9,24.5-0.9c8.3,0,16.5,0.3,24.5,0.9c4.6,6.7,8.9,13.6,12.9,20.7
			c4.1,7.1,8,14.3,11.6,21.6c-3.6,7.4-7.4,14.6-11.6,21.8l0,0c-4.1,7.1-8.4,14-12.9,20.8c-8,0.6-16.2,0.9-24.6,0.9
			c-8.3,0-16.5-0.3-24.4-0.8c-4.6-6.8-9-13.7-13.2-20.8C214.4,270.6,210.5,263.4,206.9,256z M303.5,283.4c2.7-4.7,5.3-9.4,7.8-14.2
			l0,0c3.4,7.7,6.4,15.6,9,23.7c-8.3,1.9-16.7,3.3-25.1,4.3C298.1,292.6,300.9,288,303.5,283.4L303.5,283.4z M311.3,242.5
			c-2.5-4.7-5.1-9.4-7.8-14l0,0c-2.6-4.5-5.4-9-8.2-13.4c8.6,1.1,16.8,2.5,24.5,4.3C317.3,227.2,314.5,235,311.3,242.5z
			 M256.1,182.5c5.6,6.1,10.9,12.5,15.9,19.1c-10.6-0.5-21.2-0.5-31.8,0C245.4,194.7,250.7,188.3,256.1,182.5z M194.1,149.7
			c9-5.2,28.9,2.2,50,20.8c1.4,1.2,2.7,2.4,4.1,3.7c-8.2,8.9-16,18.4-23,28.3c-12,1.1-24.1,2.9-35.9,5.6c-0.7-2.7-1.4-5.5-1.8-8.3
			l0,0C182.3,174.1,185.7,154.6,194.1,149.7z M180.9,290.5c-2.3-0.6-4.5-1.3-6.6-2.1c-11.4-3.6-22.1-9.2-31.4-16.7
			c-5.4-3.7-9-9.5-10-16c0-9.8,14.6-22.3,39-30.8c3-1.1,6.2-2,9.2-2.9c3.6,11.6,8,22.9,13.2,34C189,267.2,184.7,278.7,180.9,290.5z
			 M243.3,342.9c-8.8,8.1-19,14.5-30.2,18.8l0,0c-6,2.8-12.7,3.1-18.9,0.7c-8.4-4.9-12-23.8-7.2-49.1c0.6-3,1.2-6,1.9-8.9
			c11.9,2.6,24.1,4.3,36.2,5.2c7.1,10,14.7,19.5,23.1,28.5C246.8,339.8,245.1,341.3,243.3,342.9z M256.5,329.9
			c-5.4-5.9-10.9-12.4-16.2-19.4c5.2,0.2,10.4,0.3,15.8,0.3c5.5,0,10.9-0.1,16.2-0.4C267.4,317.2,262.1,323.7,256.5,329.9
			L256.5,329.9z M326.3,345.9c-0.5,6.5-3.7,12.6-8.8,16.7c-8.4,4.9-26.7-1.5-46.3-18.3c-2.3-1.9-4.5-4-6.8-6.2
			c8.2-9,15.8-18.6,22.6-28.6c12.3-1,24.4-2.9,36.5-5.6c0.6,2.2,1,4.4,1.5,6.5l0,0C327.6,322,328,334.1,326.3,345.9L326.3,345.9z
			 M336,288.5L336,288.5c-1.5,0.5-3,1-4.5,1.4c-3.7-11.7-8.3-23-13.6-34.1c5.1-10.9,9.5-22.1,13.1-33.6c2.7,0.8,5.4,1.6,8,2.5
			c24.9,8.6,40.1,21.2,40.1,31C379.1,266.2,362.7,279.7,336,288.5L336,288.5z"/>
		<path class="st2" d="M256,231.8c11.8,0,21.4,10.8,21.4,24c0,13.3-9.6,24-21.4,24c-11.8,0-21.4-10.8-21.4-24l0,0
			C234.6,242.5,244.2,231.8,256,231.8L256,231.8"/>
	</g>
</g>
</svg>
