<?xml version="1.0" encoding="utf-8"?>
<!-- Generator: Adobe Illustrator 25.3.0, SVG Export Plug-In . SVG Version: 6.00 Build 0)  -->
<svg version="1.1" id="Capa_1" xmlns="http://www.w3.org/2000/svg" xmlns:xlink="http://www.w3.org/1999/xlink" x="0px" y="0px"
	 viewBox="0 0 512 512" style="enable-background:new 0 0 512 512;" xml:space="preserve">
<style type="text/css">
	.st0{fill:#03A8F3;}
	.st1{fill:#FEFEFE;}
</style>
<g>
	<path class="st0" d="M447.52,88.32c0,111.45,0,222.91,0,334.36c-1.77,8.5-2.66,17.64-12.12,21.65c-5.99,2.54-12.49,2.98-18.98,2.98
		c-96.81-0.01-193.61,0.06-290.42-0.08c-14.14-0.02-28.35,1.29-42.44-1.17c-10.58-1.85-16.01-7.3-17.87-17.99
		c-0.81-4.67-1.22-9.33-1.22-14.08c0.04-105.72,0.03-211.45,0.03-317.17c0-1-0.03,0.25,0-0.75C65.38,73.42,68,67.7,89.14,64.43
		c111.5,0,222.99,0,334.49,0c0.99,0.95,2.28,0.64,3.45,0.83c13.6,2.23,17.37,6.01,19.61,19.6
		C446.88,86.04,446.57,87.33,447.52,88.32z"/>
	<path class="st1" d="M149.48,164.18c8.72,9.64,17.04,18.13,26.71,25.18c21.16,15.42,44.74,24.44,70.75,27.38
		c5.22,0.59,7.19-0.03,6.73-6.37c-1.62-22.2,7.38-39.55,27.3-49.66c20.14-10.22,39.57-7.27,56.89,7.28
		c2.95,2.48,5.42,2.59,8.78,1.73c8.68-2.22,16.79-5.86,25.84-10.29c-2.94,11.15-9.81,18.29-18.7,25.93
		c9.59,0.37,16.56-3.49,25.35-5.66c-5.17,8.43-10.89,15.06-17.91,20.17c-5.08,3.7-6.3,7.79-6.33,13.74
		c-0.36,64.73-44.67,122.11-107.14,137.84c-36.83,9.28-72.51,5.03-106.26-12.94c-1.75-0.93-3.42-2.02-5.07-3.12
		c-0.36-0.24-0.49-0.83-0.98-1.72c26.01,1.62,49.56-4.54,71.58-20.94c-22.75-2.99-38.11-13.88-46.52-34.72
		c6.99-0.84,13.3,0.93,20.37-1.88c-23.64-8.67-36.86-24.21-38.32-49.55c7.28,1.94,13.25,5.5,21.01,4.82
		C142.63,212.56,137.22,190.84,149.48,164.18z"/>
</g>
</svg>
